<svg xmlns="http://www.w3.org/2000/svg" xmlns:xlink="http://www.w3.org/1999/xlink" xmlns:lucid="lucid" width="3456" height="1360"><g transform="translate(1696 0)" lucid:page-tab-id="0_0"><path d="M-1696 0h3456v1360h-3456z" fill="#fff"/><path d="M-1500 700h200v200h-200z" fill="#c1e4f7" fill-opacity=".4"/><path d="M-1500 700h200v40h-200z" fill="#9ab6c6" fill-opacity=".4"/><path d="M-1500 700h200v200h-200zM-1500 740h200M-1332.38 740v160" stroke="#0c7cba" stroke-opacity=".7" fill="none"/><use xlink:href="#a" transform="matrix(1,0,0,1,-1490,700) translate(27.549999999999997 23.6)"/><use xlink:href="#b" transform="matrix(1,0,0,1,-1495,742.5) translate(0 17.1)"/><use xlink:href="#c" transform="matrix(1,0,0,1,-1327.3822833962831,742.5) translate(0 17.1)"/><use xlink:href="#d" transform="matrix(1,0,0,1,-1495,774.5) translate(0 17.1)"/><use xlink:href="#e" transform="matrix(1,0,0,1,-1327.3822833962831,774.5) translate(0 17.1)"/><use xlink:href="#f" transform="matrix(1,0,0,1,-1495,806.5) translate(0 17.1)"/><use xlink:href="#e" transform="matrix(1,0,0,1,-1327.3822833962831,806.5) translate(0 17.1)"/><use xlink:href="#g" transform="matrix(1,0,0,1,-1495,838.5) translate(0 17.1)"/><use xlink:href="#h" transform="matrix(1,0,0,1,-1327.3822833962831,838.5) translate(0 17.1)"/><use xlink:href="#i" transform="matrix(1,0,0,1,-1495,870.5) translate(0 17.1)"/><use xlink:href="#j" transform="matrix(1,0,0,1,-1327.3822833962831,870.5) translate(0 17.1)"/><path d="M-1420 1100h240v168h-240z" fill="#ffeca9" fill-opacity=".4"/><path d="M-1420 1100h240v40h-240z" fill="#ccbd87" fill-opacity=".4"/><path d="M-1420 1100h240v168h-240zM-1420 1140h240M-1203.54 1140v128" stroke="#000" stroke-width="2" fill="none"/><use xlink:href="#k" transform="matrix(1,0,0,1,-1410,1100) translate(50.599999999999994 23.6)"/><use xlink:href="#l" transform="matrix(1,0,0,1,-1410,1100) translate(82.5 23.6)"/><use xlink:href="#m" transform="matrix(1,0,0,1,-1410,1100) translate(102.5 23.6)"/><use xlink:href="#n" transform="matrix(1,0,0,1,-1415,1142.5) translate(0 17.1)"/><use xlink:href="#o" transform="matrix(1,0,0,1,-1198.5362514300928,1142.5) translate(0 17.1)"/><use xlink:href="#p" transform="matrix(1,0,0,1,-1415,1174.5) translate(0 17.1)"/><use xlink:href="#o" transform="matrix(1,0,0,1,-1198.5362514300928,1174.5) translate(0 17.1)"/><use xlink:href="#q" transform="matrix(1,0,0,1,-1415,1206.5) translate(0 17.1)"/><use xlink:href="#r" transform="matrix(1,0,0,1,-1198.5362514300928,1206.5) translate(0 17.1)"/><use xlink:href="#s" transform="matrix(1,0,0,1,-1415,1238.5) translate(0 17.1)"/><use xlink:href="#t" transform="matrix(1,0,0,1,-1198.5362514300928,1238.5) translate(0 17.1)"/><path d="M320 220h200v168H320z" fill="#ffeca9" fill-opacity=".4"/><path d="M320 220h200v168H320zM320 260h200M488.95 260v128" stroke="#000" stroke-width="2" fill="none"/><use xlink:href="#u" transform="matrix(1,0,0,1,330,220) translate(65.05 23.6)"/><use xlink:href="#v" transform="matrix(1,0,0,1,325,262.5) translate(0 17.1)"/><use xlink:href="#w" transform="matrix(1,0,0,1,493.9470996429343,262.5) translate(0 17.1)"/><use xlink:href="#v" transform="matrix(1,0,0,1,325,294.5) translate(0 17.1)"/><use xlink:href="#e" transform="matrix(1,0,0,1,493.9470996429343,294.5) translate(0 17.1)"/><use xlink:href="#x" transform="matrix(1,0,0,1,325,326.5) translate(0 17.1)"/><use xlink:href="#y" transform="matrix(1,0,0,1,493.9470996429343,326.5) translate(0 17.1)"/><use xlink:href="#z" transform="matrix(1,0,0,1,325,358.5) translate(0 17.1)"/><use xlink:href="#y" transform="matrix(1,0,0,1,493.9470996429343,358.5) translate(0 17.1)"/><path d="M-140 320h360v616h-360z" fill="#ffeca9" fill-opacity=".4"/><path d="M-140 320h360v40h-360z" fill="#ccbd87" fill-opacity=".4"/><path d="M-140 320h360v616h-360zM-140 360h360M168.36 360v576" stroke="#000" stroke-width="2" fill="none"/><use xlink:href="#A" transform="matrix(1,0,0,1,-130,320) translate(136.075 23.6)"/><use xlink:href="#B" transform="matrix(1,0,0,1,-135,362.5) translate(0 17.1)"/><use xlink:href="#C" transform="matrix(1,0,0,1,-135,362.5) translate(53.95 17.1)"/><use xlink:href="#D" transform="matrix(1,0,0,1,-135,394.5) translate(0 17.1)"/><use xlink:href="#E" transform="matrix(1,0,0,1,-135,394.5) translate(53.95 17.1)"/><use xlink:href="#D" transform="matrix(1,0,0,1,-135,426.5) translate(0 17.1)"/><use xlink:href="#F" transform="matrix(1,0,0,1,-135,426.5) translate(53.95 17.1)"/><use xlink:href="#D" transform="matrix(1,0,0,1,-135,458.5) translate(0 17.1)"/><use xlink:href="#G" transform="matrix(1,0,0,1,-135,458.5) translate(53.95 17.1)"/><use xlink:href="#H" transform="matrix(1,0,0,1,-135,490.5) translate(0 17.1)"/><use xlink:href="#I" transform="matrix(1,0,0,1,173.35702584272212,490.5) translate(0 17.1)"/><use xlink:href="#J" transform="matrix(1,0,0,1,-135,522.5) translate(0 17.1)"/><use xlink:href="#o" transform="matrix(1,0,0,1,173.35702584272212,522.5) translate(0 17.1)"/><use xlink:href="#K" transform="matrix(1,0,0,1,-135,554.5) translate(0 17.1)"/><use xlink:href="#L" transform="matrix(1,0,0,1,173.35702584272212,554.5) translate(0 17.1)"/><use xlink:href="#M" transform="matrix(1,0,0,1,-135,586.5) translate(0 17.1)"/><use xlink:href="#o" transform="matrix(1,0,0,1,173.35702584272212,586.5) translate(0 17.1)"/><use xlink:href="#N" transform="matrix(1,0,0,1,-135,618.5) translate(0 17.1)"/><use xlink:href="#L" transform="matrix(1,0,0,1,173.35702584272212,618.5) translate(0 17.1)"/><use xlink:href="#O" transform="matrix(1,0,0,1,-135,650.5) translate(0 17.1)"/><use xlink:href="#o" transform="matrix(1,0,0,1,173.35702584272212,650.5) translate(0 17.1)"/><use xlink:href="#P" transform="matrix(1,0,0,1,-135,682.5) translate(0 17.1)"/><use xlink:href="#r" transform="matrix(1,0,0,1,173.35702584272212,682.5) translate(0 17.1)"/><use xlink:href="#Q" transform="matrix(1,0,0,1,-135,714.5) translate(0 17.1)"/><use xlink:href="#r" transform="matrix(1,0,0,1,173.35702584272212,714.5) translate(0 17.1)"/><use xlink:href="#R" transform="matrix(1,0,0,1,-135,746.5) translate(0 17.1)"/><use xlink:href="#L" transform="matrix(1,0,0,1,173.35702584272212,746.5) translate(0 17.1)"/><use xlink:href="#S" transform="matrix(1,0,0,1,-135,778.5) translate(0 17.1)"/><use xlink:href="#L" transform="matrix(1,0,0,1,173.35702584272212,778.5) translate(0 17.1)"/><use xlink:href="#T" transform="matrix(1,0,0,1,-135,810.5) translate(0 17.1)"/><use xlink:href="#L" transform="matrix(1,0,0,1,173.35702584272212,810.5) translate(0 17.1)"/><use xlink:href="#U" transform="matrix(1,0,0,1,-135,842.5) translate(0 17.1)"/><use xlink:href="#L" transform="matrix(1,0,0,1,173.35702584272212,842.5) translate(0 17.1)"/><use xlink:href="#V" transform="matrix(1,0,0,1,-135,874.5) translate(0 17.1)"/><use xlink:href="#r" transform="matrix(1,0,0,1,173.35702584272212,874.5) translate(0 17.1)"/><use xlink:href="#W" transform="matrix(1,0,0,1,-135,906.5) translate(0 17.1)"/><use xlink:href="#r" transform="matrix(1,0,0,1,173.35702584272212,906.5) translate(0 17.1)"/><path d="M-140 120H60v72h-200z" fill="#ffeca9" fill-opacity=".4"/><path d="M-140 120H60v72h-200zM-140 160H60M28.95 160v32" stroke="#000" stroke-width="2" fill="none"/><use xlink:href="#X" transform="matrix(1,0,0,1,-130,120) translate(42.099999999999994 23.6)"/><use xlink:href="#Y" transform="matrix(1,0,0,1,-135,162.5) translate(0 17.1)"/><use xlink:href="#Z" transform="matrix(1,0,0,1,33.94709964293429,162.5) translate(0 17.1)"/><path d="M-1080 120h320v680h-320z" fill="#ff8f80" fill-opacity=".4"/><path d="M-1080 120h320v40h-320z" fill="#cc7266" fill-opacity=".4"/><path d="M-1080 120h320v680h-320zM-1080 160h320M-814.7 160v640" stroke="#000" stroke-width="2" fill="none"/><use xlink:href="#aa" transform="matrix(1,0,0,1,-1070,120) translate(124.025 23.6)"/><use xlink:href="#ab" transform="matrix(1,0,0,1,-1075,162.5) translate(0 17.1)"/><use xlink:href="#w" transform="matrix(1,0,0,1,-809.7081433690726,162.5) translate(0 17.1)"/><use xlink:href="#ac" transform="matrix(1,0,0,1,-1075,194.5) translate(0 17.1)"/><use xlink:href="#h" transform="matrix(1,0,0,1,-809.7081433690726,194.5) translate(0 17.1)"/><use xlink:href="#ad" transform="matrix(1,0,0,1,-1075,226.5) translate(0 17.1)"/><use xlink:href="#w" transform="matrix(1,0,0,1,-809.7081433690726,226.5) translate(0 17.1)"/><use xlink:href="#ae" transform="matrix(1,0,0,1,-1075,258.5) translate(0 17.1)"/><use xlink:href="#h" transform="matrix(1,0,0,1,-809.7081433690726,258.5) translate(0 17.1)"/><use xlink:href="#af" transform="matrix(1,0,0,1,-1075,290.5) translate(0 17.1)"/><use xlink:href="#w" transform="matrix(1,0,0,1,-809.7081433690726,290.5) translate(0 17.1)"/><use xlink:href="#ag" transform="matrix(1,0,0,1,-1075,322.5) translate(0 17.1)"/><use xlink:href="#e" transform="matrix(1,0,0,1,-809.7081433690726,322.5) translate(0 17.1)"/><use xlink:href="#ah" transform="matrix(1,0,0,1,-1075,354.5) translate(0 17.1)"/><use xlink:href="#ai" transform="matrix(1,0,0,1,-809.7081433690726,354.5) translate(0 17.1)"/><use xlink:href="#aj" transform="matrix(1,0,0,1,-1075,386.5) translate(0 17.1)"/><use xlink:href="#e" transform="matrix(1,0,0,1,-809.7081433690726,386.5) translate(0 17.1)"/><use xlink:href="#ak" transform="matrix(1,0,0,1,-1075,418.5) translate(0 17.1)"/><use xlink:href="#w" transform="matrix(1,0,0,1,-809.7081433690726,418.5) translate(0 17.1)"/><use xlink:href="#al" transform="matrix(1,0,0,1,-1075,450.5) translate(0 17.1)"/><use xlink:href="#e" transform="matrix(1,0,0,1,-809.7081433690726,450.5) translate(0 17.1)"/><use xlink:href="#am" transform="matrix(1,0,0,1,-1075,482.5) translate(0 17.1)"/><use xlink:href="#an" transform="matrix(1,0,0,1,-809.7081433690726,482.5) translate(0 17.1)"/><use xlink:href="#ao" transform="matrix(1,0,0,1,-1075,514.5) translate(0 17.1)"/><use xlink:href="#y" transform="matrix(1,0,0,1,-809.7081433690726,514.5) translate(0 17.1)"/><use xlink:href="#ap" transform="matrix(1,0,0,1,-1075,546.5) translate(0 17.1)"/><use xlink:href="#e" transform="matrix(1,0,0,1,-809.7081433690726,546.5) translate(0 17.1)"/><use xlink:href="#aq" transform="matrix(1,0,0,1,-1075,578.5) translate(0 17.1)"/><use xlink:href="#w" transform="matrix(1,0,0,1,-809.7081433690726,578.5) translate(0 17.1)"/><use xlink:href="#ar" transform="matrix(1,0,0,1,-1075,610.5) translate(0 17.1)"/><use xlink:href="#w" transform="matrix(1,0,0,1,-809.7081433690726,610.5) translate(0 17.1)"/><use xlink:href="#as" transform="matrix(1,0,0,1,-1075,642.5) translate(0 17.1)"/><use xlink:href="#y" transform="matrix(1,0,0,1,-809.7081433690726,642.5) translate(0 17.1)"/><use xlink:href="#at" transform="matrix(1,0,0,1,-1075,674.5) translate(0 17.1)"/><use xlink:href="#h" transform="matrix(1,0,0,1,-809.7081433690726,674.5) translate(0 17.1)"/><use xlink:href="#au" transform="matrix(1,0,0,1,-1075,706.5) translate(0 17.1)"/><use xlink:href="#h" transform="matrix(1,0,0,1,-809.7081433690726,706.5) translate(0 17.1)"/><use xlink:href="#av" transform="matrix(1,0,0,1,-1075,738.5) translate(0 17.1)"/><use xlink:href="#w" transform="matrix(1,0,0,1,-809.7081433690726,738.5) translate(0 17.1)"/><use xlink:href="#aw" transform="matrix(1,0,0,1,-1075,770.5) translate(0 17.1)"/><use xlink:href="#e" transform="matrix(1,0,0,1,-809.7081433690726,770.5) translate(0 17.1)"/><path d="M-1299.5 756h109.25V464H-1081" stroke="#0c7cba" stroke-opacity=".7" fill="none"/><path d="M-1299.5 756.5h-.5v-1h.5zM-1080 464.5h-1v-1h1z" fill="#0c7cba" fill-opacity=".7"/><path d="M-1299.5 756h109.25V336H-1081" stroke="#0c7cba" stroke-opacity=".7" fill="none"/><path d="M-1299.5 756.5h-.5v-1h.5zM-1080 336.5h-1v-1h1z" fill="#0c7cba" fill-opacity=".7"/><path d="M-1299.5 756h109.25V368H-1081" stroke="#0c7cba" stroke-opacity=".7" fill="none"/><path d="M-1299.5 756.5h-.5v-1h.5zM-1080 368.5h-1v-1h1z" fill="#0c7cba" fill-opacity=".7"/><path d="M-1299.5 756h109.25V400H-1081" stroke="#0c7cba" stroke-opacity=".7" fill="none"/><path d="M-1299.5 756.5h-.5v-1h.5zM-1080 400.5h-1v-1h1z" fill="#0c7cba" fill-opacity=".7"/><path d="M-1299.5 756h109.25V432H-1081" stroke="#0c7cba" stroke-opacity=".7" fill="none"/><path d="M-1299.5 756.5h-.5v-1h.5zM-1080 432.5h-1v-1h1z" fill="#0c7cba" fill-opacity=".7"/><path d="M-1299.5 788h179.5V624h39" stroke="#0c7cba" stroke-opacity=".7" stroke-width="2" fill="none"/><path d="M-1299.5 789h-.5v-2h.5zM-1080 625h-1v-2h1z" fill="#0c7cba" fill-opacity=".7"/><path d="M-1299.5 788h179.5V560h39" stroke="#0c7cba" stroke-opacity=".7" stroke-width="2" fill="none"/><path d="M-1299.5 789h-.5v-2h.5zM-1080 561h-1v-2h1z" fill="#0c7cba" fill-opacity=".7"/><path d="M-1299.5 788h179.5V592h39" stroke="#0c7cba" stroke-opacity=".7" stroke-width="2" fill="none"/><path d="M-1299.5 789h-.5v-2h.5zM-1080 593h-1v-2h1z" fill="#0c7cba" fill-opacity=".7"/><path d="M-1299.5 852h40v148H-1461v156h40" stroke="#0c7cba" stroke-opacity=".7" fill="none"/><path d="M-1299.5 852.5h-.5v-1h.5zM-1420 1156.5h-1v-1h1z" fill="#0c7cba" fill-opacity=".7"/><path d="M-1299.5 852h40v148H-1461v188h40" stroke="#0c7cba" stroke-opacity=".7" fill="none"/><path d="M-1299.5 852.5h-.5v-1h.5zM-1420 1188.5h-1v-1h1z" fill="#0c7cba" fill-opacity=".7"/><path d="M-1299.5 852h40v148H-1461v220h40" stroke="#0c7cba" stroke-opacity=".7" fill="none"/><path d="M-1299.5 852.5h-.5v-1h.5zM-1420 1220.5h-1v-1h1z" fill="#0c7cba" fill-opacity=".7"/><path d="M-1299.5 852h40v148H-1461v252h40" stroke="#0c7cba" stroke-opacity=".7" fill="none"/><path d="M-1299.5 852.5h-.5v-1h.5zM-1420 1252.5h-1v-1h1z" fill="#0c7cba" fill-opacity=".7"/><path d="M-1299.5 820h160.5v336h-40" stroke="#0c7cba" stroke-opacity=".7" fill="none"/><path d="M-1299.5 820.5h-.5v-1h.5zM-1179 1156.5h-1v-1h1z" fill="#0c7cba" fill-opacity=".7"/><path d="M-1299.5 820h159.5v368h-39" stroke="#0c7cba" stroke-opacity=".7" fill="none"/><path d="M-1299.5 820.5h-.5v-1h.5zM-1179 1188.5h-1v-1h1z" fill="#0c7cba" fill-opacity=".7"/><path d="M-1299.5 820h159.5v400h-39" stroke="#0c7cba" stroke-opacity=".7" fill="none"/><path d="M-1299.5 820.5h-.5v-1h.5zM-1179 1220.5h-1v-1h1z" fill="#0c7cba" fill-opacity=".7"/><path d="M-759 240h429v200h189" stroke="#c92d39" stroke-opacity=".7" fill="none"/><path d="M-759 240.5h-1v-1h1zM-140 440.5h-1v-1h1z" fill="#c92d39" fill-opacity=".7"/><path d="M-759 304h359v200h259" stroke="#c92d39" stroke-opacity=".7" fill="none"/><path d="M-759 304.5h-1v-1h1zM-140 504.5h-1v-1h1z" fill="#c92d39" fill-opacity=".7"/><path d="M-759 176h519v200h99" stroke="#c92d39" stroke-opacity=".7" fill="none"/><path d="M-759 176.5h-1v-1h1zM-140 376.5h-1v-1h1z" fill="#c92d39" fill-opacity=".7"/><path d="M-759 208h469v200h149" stroke="#c92d39" stroke-opacity=".7" fill="none"/><path d="M-759 208.5h-1v-1h1zM-140 408.5h-1v-1h1z" fill="#c92d39" fill-opacity=".7"/><path d="M-759 272h399v200h219" stroke="#c92d39" stroke-opacity=".7" fill="none"/><path d="M-759 272.5h-1v-1h1zM-140 472.5h-1v-1h1z" fill="#c92d39" fill-opacity=".7"/><path d="M-1020 960h240v168h-240z" fill="#ffeca9" fill-opacity=".4"/><path d="M-1020 960h240v40h-240z" fill="#ccbd87" fill-opacity=".4"/><path d="M-1020 960h240v168h-240zM-1020 1000h240M-803.54 1000v128" stroke="#000" stroke-width="2" fill="none"/><use xlink:href="#ax" transform="matrix(1,0,0,1,-1010,960) translate(39.57499999999999 23.6)"/><use xlink:href="#l" transform="matrix(1,0,0,1,-1010,960) translate(93.52499999999999 23.6)"/><use xlink:href="#m" transform="matrix(1,0,0,1,-1010,960) translate(113.52499999999999 23.6)"/><use xlink:href="#n" transform="matrix(1,0,0,1,-1015,1002.5) translate(0 17.1)"/><use xlink:href="#o" transform="matrix(1,0,0,1,-798.5362514300929,1002.5) translate(0 17.1)"/><use xlink:href="#p" transform="matrix(1,0,0,1,-1015,1034.5) translate(0 17.1)"/><use xlink:href="#o" transform="matrix(1,0,0,1,-798.5362514300929,1034.5) translate(0 17.1)"/><use xlink:href="#q" transform="matrix(1,0,0,1,-1015,1066.5) translate(0 17.1)"/><use xlink:href="#r" transform="matrix(1,0,0,1,-798.5362514300929,1066.5) translate(0 17.1)"/><use xlink:href="#s" transform="matrix(1,0,0,1,-1015,1098.5) translate(0 17.1)"/><use xlink:href="#t" transform="matrix(1,0,0,1,-798.5362514300929,1098.5) translate(0 17.1)"/><path d="M-759 560h99v520.3h-119" stroke="#000" stroke-width="2" fill="none"/><path fill="#fff"/><path d="M-738 570h-2v-20h2zM-756.32 1080.3l-21.8 10.9-.88-1.8 18.2-9.1-18.2-9.1.9-1.8z"/><path d="M-759 592h79v456.03h-99" stroke="#000" stroke-width="2" fill="none"/><path fill="#fff"/><path d="M-738 602h-2v-20h2zM-756.32 1048.03l-21.8 10.9-.88-1.8 18.2-9.1-18.2-9.1.9-1.8z"/><path d="M-759 624h59v391.77h-79" stroke="#000" stroke-width="2" fill="none"/><path fill="#fff"/><path d="M-738 634h-2v-20h2zM-756.32 1015.77l-21.8 10.9-.88-1.8 18.2-9.1-18.2-9.1.9-1.8z"/><path d="M-759 528h119v584.57h-139" stroke="#000" stroke-width="2" fill="none"/><path fill="#fff"/><path d="M-738 538h-2v-20h2zM-756.32 1112.57l-21.8 10.9-.88-1.8 18.2-9.1-18.2-9.1.9-1.8z"/><path d="M-759 336h309v200h309" stroke="#000" stroke-width="2" fill="none"/><path fill="#fff"/><path d="M-738 346h-2v-20h2zM-141 526.9l-18.2 9.1 18.2 9.1-.9 1.8-21.78-10.9 21.8-10.9z"/><path d="M-759 336h309v232h309" stroke="#000" stroke-width="2" fill="none"/><path fill="#fff"/><path d="M-738 346h-2v-20h2zM-141 558.9l-18.2 9.1 18.2 9.1-.9 1.8-21.78-10.9 21.8-10.9z"/><path d="M-759 336h309v264h309" stroke="#000" stroke-width="2" fill="none"/><path fill="#fff"/><path d="M-738 346h-2v-20h2zM-141 590.9l-18.2 9.1 18.2 9.1-.9 1.8-21.78-10.9 21.8-10.9z"/><path d="M-759 336h309v296h309" stroke="#000" stroke-width="2" fill="none"/><path fill="#fff"/><path d="M-738 346h-2v-20h2zM-141 622.9l-18.2 9.1 18.2 9.1-.9 1.8-21.78-10.9 21.8-10.9z"/><path d="M-759 400h269v296.38h349" stroke="#000" stroke-width="2" fill="none"/><path fill="#fff"/><path d="M-738 410h-2v-20h2zM-141 687.27l-18.2 9.1 18.2 9.1-.9 1.8-21.78-10.9 21.8-10.9z"/><path d="M-759 496h119v616.57h-139" stroke="#000" stroke-width="2" fill="none"/><path fill="#fff"/><path d="M-738 506h-2v-20h2zM-756.32 1112.57l-21.8 10.9-.88-1.8 18.2-9.1-18.2-9.1.9-1.8z"/><defs><path d="M115-194c55 1 70 41 70 98S169 2 115 4C84 4 66-9 55-30l1 105H24l-1-265h31l2 30c10-21 28-34 59-34zm-8 174c40 0 45-34 45-75s-6-73-45-74c-42 0-51 32-51 76 0 43 10 73 51 73" id="ay"/><path d="M24 0v-261h32V0H24" id="az"/><path d="M135-143c-3-34-86-38-87 0 15 53 115 12 119 90S17 21 10-45l28-5c4 36 97 45 98 0-10-56-113-15-118-90-4-57 82-63 122-42 12 7 21 19 24 35" id="aA"/><path d="M100-194c63 0 86 42 84 106H49c0 40 14 67 53 68 26 1 43-12 49-29l28 8c-11 28-37 45-77 45C44 4 14-33 15-96c1-61 26-98 85-98zm52 81c6-60-76-77-97-28-3 7-6 17-6 28h103" id="aB"/><path d="M96-169c-40 0-48 33-48 73s9 75 48 75c24 0 41-14 43-38l32 2c-6 37-31 61-74 61-59 0-76-41-82-99-10-93 101-131 147-64 4 7 5 14 7 22l-32 3c-4-21-16-35-41-35" id="aC"/><path d="M-5 72V49h209v23H-5" id="aD"/><path d="M106-169C34-169 62-67 57 0H25v-261h32l-1 103c12-21 28-36 61-36 89 0 53 116 60 194h-32v-121c2-32-8-49-39-48" id="aE"/><path d="M143 0L79-87 56-68V0H24v-261h32v163l83-92h37l-77 82L181 0h-38" id="aF"/><path d="M114-163C36-179 61-72 57 0H25l-1-190h30c1 12-1 29 2 39 6-27 23-49 58-41v29" id="aG"/><g id="a"><use transform="matrix(0.05,0,0,0.05,0,0)" xlink:href="#ay"/><use transform="matrix(0.05,0,0,0.05,10,0)" xlink:href="#az"/><use transform="matrix(0.05,0,0,0.05,13.949999999999998,0)" xlink:href="#aA"/><use transform="matrix(0.05,0,0,0.05,22.95,0)" xlink:href="#ay"/><use transform="matrix(0.05,0,0,0.05,32.95,0)" xlink:href="#aB"/><use transform="matrix(0.05,0,0,0.05,42.95,0)" xlink:href="#aC"/><use transform="matrix(0.05,0,0,0.05,51.95,0)" xlink:href="#aD"/><use transform="matrix(0.05,0,0,0.05,61.95,0)" xlink:href="#aC"/><use transform="matrix(0.05,0,0,0.05,70.95,0)" xlink:href="#aE"/><use transform="matrix(0.05,0,0,0.05,80.95,0)" xlink:href="#aB"/><use transform="matrix(0.05,0,0,0.05,90.95,0)" xlink:href="#aC"/><use transform="matrix(0.05,0,0,0.05,99.95,0)" xlink:href="#aF"/><use transform="matrix(0.05,0,0,0.05,108.95,0)" xlink:href="#aB"/><use transform="matrix(0.05,0,0,0.05,118.95,0)" xlink:href="#aG"/></g><path d="M141 0L90-78 38 0H4l68-98-65-92h35l48 74 47-74h35l-64 92 68 98h-35" id="aH"/><path d="M141-36C126-15 110 5 73 4 37 3 15-17 15-53c-1-64 63-63 125-63 3-35-9-54-41-54-24 1-41 7-42 31l-33-3c5-37 33-52 76-52 45 0 72 20 72 64v82c-1 20 7 32 28 27v20c-31 9-61-2-59-35zM48-53c0 20 12 33 32 33 41-3 63-29 60-74-43 2-92-5-92 41" id="aI"/><path d="M117-194c89-4 53 116 60 194h-32v-121c0-31-8-49-39-48C34-167 62-67 57 0H25l-1-190h30c1 10-1 24 2 32 11-22 29-35 61-36" id="aJ"/><path d="M24-231v-30h32v30H24zM24 0v-190h32V0H24" id="aK"/><path d="M100-194c62-1 85 37 85 99 1 63-27 99-86 99S16-35 15-95c0-66 28-99 85-99zM99-20c44 1 53-31 53-75 0-43-8-75-51-75s-53 32-53 75 10 74 51 75" id="aL"/><g id="b"><use transform="matrix(0.05,0,0,0.05,0,0)" xlink:href="#aB"/><use transform="matrix(0.05,0,0,0.05,10,0)" xlink:href="#aH"/><use transform="matrix(0.05,0,0,0.05,19,0)" xlink:href="#ay"/><use transform="matrix(0.05,0,0,0.05,29,0)" xlink:href="#aI"/><use transform="matrix(0.05,0,0,0.05,39,0)" xlink:href="#aJ"/><use transform="matrix(0.05,0,0,0.05,49,0)" xlink:href="#aA"/><use transform="matrix(0.05,0,0,0.05,58,0)" xlink:href="#aK"/><use transform="matrix(0.05,0,0,0.05,61.95,0)" xlink:href="#aL"/><use transform="matrix(0.05,0,0,0.05,71.95,0)" xlink:href="#aJ"/></g><path d="M134-131c28 9 52 24 51 62-1 50-34 73-85 73S17-19 16-69c0-36 21-54 49-61-75-25-45-126 34-121 46 3 78 18 79 63 0 33-17 51-44 57zm-34-11c31 1 46-15 46-44 0-28-17-43-47-42-29 0-46 13-45 42 1 28 16 44 46 44zm1 122c35 0 51-18 51-52 0-30-18-46-53-46-33 0-51 17-51 47 0 34 19 51 53 51" id="aM"/><use transform="matrix(0.05,0,0,0.05,0,0)" xlink:href="#aM" id="c"/><path d="M85-194c31 0 48 13 60 33l-1-100h32l1 261h-30c-2-10 0-23-3-31C134-8 116 4 85 4 32 4 16-35 15-94c0-66 23-100 70-100zm9 24c-40 0-46 34-46 75 0 40 6 74 45 74 42 0 51-32 51-76 0-42-9-74-50-73" id="aN"/><g id="d"><use transform="matrix(0.05,0,0,0.05,0,0)" xlink:href="#aN"/><use transform="matrix(0.05,0,0,0.05,10,0)" xlink:href="#aL"/><use transform="matrix(0.05,0,0,0.05,20,0)" xlink:href="#aD"/><use transform="matrix(0.05,0,0,0.05,30,0)" xlink:href="#aB"/><use transform="matrix(0.05,0,0,0.05,40,0)" xlink:href="#aH"/><use transform="matrix(0.05,0,0,0.05,49,0)" xlink:href="#ay"/><use transform="matrix(0.05,0,0,0.05,59,0)" xlink:href="#aI"/><use transform="matrix(0.05,0,0,0.05,69,0)" xlink:href="#aJ"/><use transform="matrix(0.05,0,0,0.05,79,0)" xlink:href="#aN"/></g><path d="M126-127c33 6 58 20 58 59 0 88-139 92-164 29-3-8-5-16-6-25l32-3c6 27 21 44 54 44 32 0 52-15 52-46 0-38-36-46-79-43v-28c39 1 72-4 72-42 0-27-17-43-46-43-28 0-47 15-49 41l-32-3c6-42 35-63 81-64 48-1 79 21 79 65 0 36-21 52-52 59" id="aO"/><use transform="matrix(0.05,0,0,0.05,0,0)" xlink:href="#aO" id="e"/><path d="M84 4C-5 8 30-112 23-190h32v120c0 31 7 50 39 49 72-2 45-101 50-169h31l1 190h-30c-1-10 1-25-2-33-11 22-28 36-60 37" id="aP"/><g id="f"><use transform="matrix(0.05,0,0,0.05,0,0)" xlink:href="#aB"/><use transform="matrix(0.05,0,0,0.05,10,0)" xlink:href="#aH"/><use transform="matrix(0.05,0,0,0.05,19,0)" xlink:href="#ay"/><use transform="matrix(0.05,0,0,0.05,29,0)" xlink:href="#aI"/><use transform="matrix(0.05,0,0,0.05,39,0)" xlink:href="#aJ"/><use transform="matrix(0.05,0,0,0.05,49,0)" xlink:href="#aN"/><use transform="matrix(0.05,0,0,0.05,59,0)" xlink:href="#aB"/><use transform="matrix(0.05,0,0,0.05,69,0)" xlink:href="#aP"/><use transform="matrix(0.05,0,0,0.05,79,0)" xlink:href="#aG"/></g><g id="g"><use transform="matrix(0.05,0,0,0.05,0,0)" xlink:href="#aA"/><use transform="matrix(0.05,0,0,0.05,9,0)" xlink:href="#aE"/><use transform="matrix(0.05,0,0,0.05,19,0)" xlink:href="#aL"/><use transform="matrix(0.05,0,0,0.05,29,0)" xlink:href="#aP"/><use transform="matrix(0.05,0,0,0.05,39,0)" xlink:href="#az"/><use transform="matrix(0.05,0,0,0.05,42.95,0)" xlink:href="#aN"/><use transform="matrix(0.05,0,0,0.05,52.95,0)" xlink:href="#aD"/><use transform="matrix(0.05,0,0,0.05,62.95,0)" xlink:href="#aB"/><use transform="matrix(0.05,0,0,0.05,72.95,0)" xlink:href="#aH"/><use transform="matrix(0.05,0,0,0.05,81.95,0)" xlink:href="#ay"/><use transform="matrix(0.05,0,0,0.05,91.95,0)" xlink:href="#aI"/><use transform="matrix(0.05,0,0,0.05,101.95,0)" xlink:href="#aJ"/><use transform="matrix(0.05,0,0,0.05,111.95,0)" xlink:href="#aN"/></g><path d="M155-56V0h-30v-56H8v-25l114-167h33v167h35v25h-35zm-30-156c-27 46-58 90-88 131h88v-131" id="aQ"/><use transform="matrix(0.05,0,0,0.05,0,0)" xlink:href="#aQ" id="h"/><path d="M59-47c-2 24 18 29 38 22v24C64 9 27 4 27-40v-127H5v-23h24l9-43h21v43h35v23H59v120" id="aR"/><path d="M210-169c-67 3-38 105-44 169h-31v-121c0-29-5-50-35-48C34-165 62-65 56 0H25l-1-190h30c1 10-1 24 2 32 10-44 99-50 107 0 11-21 27-35 58-36 85-2 47 119 55 194h-31v-121c0-29-5-49-35-48" id="aS"/><g id="i"><use transform="matrix(0.05,0,0,0.05,0,0)" xlink:href="#aR"/><use transform="matrix(0.05,0,0,0.05,5,0)" xlink:href="#aB"/><use transform="matrix(0.05,0,0,0.05,15,0)" xlink:href="#aG"/><use transform="matrix(0.05,0,0,0.05,20.95,0)" xlink:href="#aS"/><use transform="matrix(0.05,0,0,0.05,35.9,0)" xlink:href="#aD"/><use transform="matrix(0.05,0,0,0.05,45.9,0)" xlink:href="#aB"/><use transform="matrix(0.05,0,0,0.05,55.900000000000006,0)" xlink:href="#aH"/><use transform="matrix(0.05,0,0,0.05,64.9,0)" xlink:href="#ay"/><use transform="matrix(0.05,0,0,0.05,74.9,0)" xlink:href="#aI"/><use transform="matrix(0.05,0,0,0.05,84.9,0)" xlink:href="#aJ"/><use transform="matrix(0.05,0,0,0.05,94.9,0)" xlink:href="#aA"/><use transform="matrix(0.05,0,0,0.05,103.9,0)" xlink:href="#aK"/><use transform="matrix(0.05,0,0,0.05,107.85000000000001,0)" xlink:href="#aL"/><use transform="matrix(0.05,0,0,0.05,117.85000000000001,0)" xlink:href="#aJ"/></g><path d="M101-251c82-7 93 87 43 132L82-64C71-53 59-42 53-27h129V0H18c2-99 128-94 128-182 0-28-16-43-45-43s-46 15-49 41l-32-3c6-41 34-60 81-64" id="aT"/><use transform="matrix(0.05,0,0,0.05,0,0)" xlink:href="#aT" id="j"/><g id="k"><use transform="matrix(0.05,0,0,0.05,0,0)" xlink:href="#aC"/><use transform="matrix(0.05,0,0,0.05,9,0)" xlink:href="#aI"/><use transform="matrix(0.05,0,0,0.05,19,0)" xlink:href="#az"/><use transform="matrix(0.05,0,0,0.05,22.95,0)" xlink:href="#az"/></g><path d="M101-234c-31-9-42 10-38 44h38v23H63V0H32v-167H5v-23h27c-7-52 17-82 69-68v24" id="aU"/><g id="l"><use transform="matrix(0.05,0,0,0.05,0,0)" xlink:href="#aL"/><use transform="matrix(0.05,0,0,0.05,10,0)" xlink:href="#aU"/></g><path d="M179-190L93 31C79 59 56 82 12 73V49c39 6 53-20 64-50L1-190h34L92-34l54-156h33" id="aV"/><g id="m"><use transform="matrix(0.05,0,0,0.05,0,0)" xlink:href="#aN"/><use transform="matrix(0.05,0,0,0.05,10,0)" xlink:href="#aV"/><use transform="matrix(0.05,0,0,0.05,19,0)" xlink:href="#aJ"/><use transform="matrix(0.05,0,0,0.05,29,0)" xlink:href="#aI"/><use transform="matrix(0.05,0,0,0.05,39,0)" xlink:href="#aS"/><use transform="matrix(0.05,0,0,0.05,53.95,0)" xlink:href="#aK"/><use transform="matrix(0.05,0,0,0.05,57.900000000000006,0)" xlink:href="#aC"/></g><g id="n"><use transform="matrix(0.05,0,0,0.05,0,0)" xlink:href="#aI"/><use transform="matrix(0.05,0,0,0.05,10,0)" xlink:href="#aA"/><use transform="matrix(0.05,0,0,0.05,19,0)" xlink:href="#aA"/><use transform="matrix(0.05,0,0,0.05,28,0)" xlink:href="#aB"/><use transform="matrix(0.05,0,0,0.05,38,0)" xlink:href="#aG"/><use transform="matrix(0.05,0,0,0.05,43.95,0)" xlink:href="#aR"/><use transform="matrix(0.05,0,0,0.05,48.95,0)" xlink:href="#aB"/><use transform="matrix(0.05,0,0,0.05,58.95,0)" xlink:href="#aN"/><use transform="matrix(0.05,0,0,0.05,68.95,0)" xlink:href="#aD"/><use transform="matrix(0.05,0,0,0.05,78.95,0)" xlink:href="#aA"/><use transform="matrix(0.05,0,0,0.05,87.95,0)" xlink:href="#ay"/><use transform="matrix(0.05,0,0,0.05,97.95,0)" xlink:href="#aB"/><use transform="matrix(0.05,0,0,0.05,107.95,0)" xlink:href="#aC"/><use transform="matrix(0.05,0,0,0.05,116.95,0)" xlink:href="#aD"/><use transform="matrix(0.05,0,0,0.05,126.95,0)" xlink:href="#ay"/><use transform="matrix(0.05,0,0,0.05,136.95,0)" xlink:href="#aG"/><use transform="matrix(0.05,0,0,0.05,142.89999999999998,0)" xlink:href="#aB"/></g><use transform="matrix(0.05,0,0,0.05,0,0)" xlink:href="#aT" id="o"/><path d="M108 0H70L1-190h34L89-25l56-165h34" id="aW"/><g id="p"><use transform="matrix(0.05,0,0,0.05,0,0)" xlink:href="#aI"/><use transform="matrix(0.05,0,0,0.05,10,0)" xlink:href="#aA"/><use transform="matrix(0.05,0,0,0.05,19,0)" xlink:href="#aA"/><use transform="matrix(0.05,0,0,0.05,28,0)" xlink:href="#aB"/><use transform="matrix(0.05,0,0,0.05,38,0)" xlink:href="#aG"/><use transform="matrix(0.05,0,0,0.05,43.95,0)" xlink:href="#aR"/><use transform="matrix(0.05,0,0,0.05,48.95,0)" xlink:href="#aB"/><use transform="matrix(0.05,0,0,0.05,58.95,0)" xlink:href="#aN"/><use transform="matrix(0.05,0,0,0.05,68.95,0)" xlink:href="#aD"/><use transform="matrix(0.05,0,0,0.05,78.95,0)" xlink:href="#aA"/><use transform="matrix(0.05,0,0,0.05,87.95,0)" xlink:href="#ay"/><use transform="matrix(0.05,0,0,0.05,97.95,0)" xlink:href="#aB"/><use transform="matrix(0.05,0,0,0.05,107.95,0)" xlink:href="#aC"/><use transform="matrix(0.05,0,0,0.05,116.95,0)" xlink:href="#aD"/><use transform="matrix(0.05,0,0,0.05,126.95,0)" xlink:href="#aK"/><use transform="matrix(0.05,0,0,0.05,130.9,0)" xlink:href="#aJ"/><use transform="matrix(0.05,0,0,0.05,140.9,0)" xlink:href="#aW"/><use transform="matrix(0.05,0,0,0.05,149.9,0)" xlink:href="#aI"/><use transform="matrix(0.05,0,0,0.05,159.9,0)" xlink:href="#aG"/><use transform="matrix(0.05,0,0,0.05,165.85,0)" xlink:href="#aI"/><use transform="matrix(0.05,0,0,0.05,175.85,0)" xlink:href="#aK"/><use transform="matrix(0.05,0,0,0.05,179.79999999999998,0)" xlink:href="#aJ"/><use transform="matrix(0.05,0,0,0.05,189.79999999999998,0)" xlink:href="#aR"/></g><g id="q"><use transform="matrix(0.05,0,0,0.05,0,0)" xlink:href="#aI"/><use transform="matrix(0.05,0,0,0.05,10,0)" xlink:href="#aA"/><use transform="matrix(0.05,0,0,0.05,19,0)" xlink:href="#aA"/><use transform="matrix(0.05,0,0,0.05,28,0)" xlink:href="#aB"/><use transform="matrix(0.05,0,0,0.05,38,0)" xlink:href="#aG"/><use transform="matrix(0.05,0,0,0.05,43.95,0)" xlink:href="#aR"/><use transform="matrix(0.05,0,0,0.05,48.95,0)" xlink:href="#aB"/><use transform="matrix(0.05,0,0,0.05,58.95,0)" xlink:href="#aN"/><use transform="matrix(0.05,0,0,0.05,68.95,0)" xlink:href="#aD"/><use transform="matrix(0.05,0,0,0.05,78.95,0)" xlink:href="#aA"/><use transform="matrix(0.05,0,0,0.05,87.95,0)" xlink:href="#ay"/><use transform="matrix(0.05,0,0,0.05,97.95,0)" xlink:href="#aB"/><use transform="matrix(0.05,0,0,0.05,107.95,0)" xlink:href="#aC"/><use transform="matrix(0.05,0,0,0.05,116.95,0)" xlink:href="#aD"/><use transform="matrix(0.05,0,0,0.05,126.95,0)" xlink:href="#ay"/><use transform="matrix(0.05,0,0,0.05,136.95,0)" xlink:href="#aL"/><use transform="matrix(0.05,0,0,0.05,146.95,0)" xlink:href="#aA"/><use transform="matrix(0.05,0,0,0.05,155.95,0)" xlink:href="#aR"/></g><use transform="matrix(0.05,0,0,0.05,0,0)" xlink:href="#aO" id="r"/><g id="s"><use transform="matrix(0.05,0,0,0.05,0,0)" xlink:href="#aC"/><use transform="matrix(0.05,0,0,0.05,9,0)" xlink:href="#aE"/><use transform="matrix(0.05,0,0,0.05,19,0)" xlink:href="#aB"/><use transform="matrix(0.05,0,0,0.05,29,0)" xlink:href="#aC"/><use transform="matrix(0.05,0,0,0.05,38,0)" xlink:href="#aF"/><use transform="matrix(0.05,0,0,0.05,47,0)" xlink:href="#aD"/><use transform="matrix(0.05,0,0,0.05,57,0)" xlink:href="#ay"/><use transform="matrix(0.05,0,0,0.05,67,0)" xlink:href="#aG"/><use transform="matrix(0.05,0,0,0.05,72.95,0)" xlink:href="#aB"/><use transform="matrix(0.05,0,0,0.05,82.95,0)" xlink:href="#aN"/><use transform="matrix(0.05,0,0,0.05,92.95,0)" xlink:href="#aK"/><use transform="matrix(0.05,0,0,0.05,96.9,0)" xlink:href="#aC"/><use transform="matrix(0.05,0,0,0.05,105.9,0)" xlink:href="#aI"/><use transform="matrix(0.05,0,0,0.05,115.9,0)" xlink:href="#aR"/><use transform="matrix(0.05,0,0,0.05,120.9,0)" xlink:href="#aB"/></g><path d="M27 0v-27h64v-190l-56 39v-29l58-41h29v221h61V0H27" id="aX"/><use transform="matrix(0.05,0,0,0.05,0,0)" xlink:href="#aX" id="t"/><path d="M177-190C167-65 218 103 67 71c-23-6-38-20-44-43l32-5c15 47 100 32 89-28v-30C133-14 115 1 83 1 29 1 15-40 15-95c0-56 16-97 71-98 29-1 48 16 59 35 1-10 0-23 2-32h30zM94-22c36 0 50-32 50-73 0-42-14-75-50-75-39 0-46 34-46 75s6 73 46 73" id="aY"/><g id="u"><use transform="matrix(0.05,0,0,0.05,0,0)" xlink:href="#az"/><use transform="matrix(0.05,0,0,0.05,3.95,0)" xlink:href="#aL"/><use transform="matrix(0.05,0,0,0.05,13.949999999999998,0)" xlink:href="#aY"/><use transform="matrix(0.05,0,0,0.05,23.95,0)" xlink:href="#aY"/><use transform="matrix(0.05,0,0,0.05,33.95,0)" xlink:href="#aB"/><use transform="matrix(0.05,0,0,0.05,43.95,0)" xlink:href="#aG"/></g><g id="v"><use transform="matrix(0.05,0,0,0.05,0,0)" xlink:href="#az"/><use transform="matrix(0.05,0,0,0.05,3.95,0)" xlink:href="#aL"/><use transform="matrix(0.05,0,0,0.05,13.949999999999998,0)" xlink:href="#aY"/></g><use transform="matrix(0.05,0,0,0.05,0,0)" xlink:href="#aT" id="w"/><g id="x"><use transform="matrix(0.05,0,0,0.05,0,0)" xlink:href="#aA"/><use transform="matrix(0.05,0,0,0.05,9,0)" xlink:href="#aB"/><use transform="matrix(0.05,0,0,0.05,19,0)" xlink:href="#aR"/><use transform="matrix(0.05,0,0,0.05,24,0)" xlink:href="#aD"/><use transform="matrix(0.05,0,0,0.05,34,0)" xlink:href="#az"/><use transform="matrix(0.05,0,0,0.05,37.95,0)" xlink:href="#aL"/><use transform="matrix(0.05,0,0,0.05,47.95,0)" xlink:href="#aY"/><use transform="matrix(0.05,0,0,0.05,57.95,0)" xlink:href="#az"/><use transform="matrix(0.05,0,0,0.05,61.900000000000006,0)" xlink:href="#aB"/><use transform="matrix(0.05,0,0,0.05,71.9,0)" xlink:href="#aW"/><use transform="matrix(0.05,0,0,0.05,80.9,0)" xlink:href="#aB"/><use transform="matrix(0.05,0,0,0.05,90.9,0)" xlink:href="#az"/></g><use transform="matrix(0.05,0,0,0.05,0,0)" xlink:href="#aX" id="y"/><path d="M115-194c53 0 69 39 70 98 0 66-23 100-70 100C84 3 66-7 56-30L54 0H23l1-261h32v101c10-23 28-34 59-34zm-8 174c40 0 45-34 45-75 0-40-5-75-45-74-42 0-51 32-51 76 0 43 10 73 51 73" id="aZ"/><g id="z"><use transform="matrix(0.05,0,0,0.05,0,0)" xlink:href="#ay"/><use transform="matrix(0.05,0,0,0.05,10,0)" xlink:href="#aL"/><use transform="matrix(0.05,0,0,0.05,20,0)" xlink:href="#aA"/><use transform="matrix(0.05,0,0,0.05,29,0)" xlink:href="#aA"/><use transform="matrix(0.05,0,0,0.05,38,0)" xlink:href="#aK"/><use transform="matrix(0.05,0,0,0.05,41.95,0)" xlink:href="#aZ"/><use transform="matrix(0.05,0,0,0.05,51.95,0)" xlink:href="#az"/><use transform="matrix(0.05,0,0,0.05,55.900000000000006,0)" xlink:href="#aB"/><use transform="matrix(0.05,0,0,0.05,65.9,0)" xlink:href="#aD"/><use transform="matrix(0.05,0,0,0.05,75.9,0)" xlink:href="#az"/><use transform="matrix(0.05,0,0,0.05,79.85000000000001,0)" xlink:href="#aL"/><use transform="matrix(0.05,0,0,0.05,89.85000000000001,0)" xlink:href="#aY"/><use transform="matrix(0.05,0,0,0.05,99.85000000000001,0)" xlink:href="#az"/><use transform="matrix(0.05,0,0,0.05,103.80000000000001,0)" xlink:href="#aB"/><use transform="matrix(0.05,0,0,0.05,113.80000000000001,0)" xlink:href="#aW"/><use transform="matrix(0.05,0,0,0.05,122.80000000000001,0)" xlink:href="#aB"/><use transform="matrix(0.05,0,0,0.05,132.8,0)" xlink:href="#az"/></g><g id="A"><use transform="matrix(0.05,0,0,0.05,0,0)" xlink:href="#aW"/><use transform="matrix(0.05,0,0,0.05,9,0)" xlink:href="#aI"/><use transform="matrix(0.05,0,0,0.05,19,0)" xlink:href="#az"/><use transform="matrix(0.05,0,0,0.05,22.95,0)" xlink:href="#aK"/><use transform="matrix(0.05,0,0,0.05,26.899999999999995,0)" xlink:href="#aN"/><use transform="matrix(0.05,0,0,0.05,36.9,0)" xlink:href="#aI"/><use transform="matrix(0.05,0,0,0.05,46.9,0)" xlink:href="#aR"/><use transform="matrix(0.05,0,0,0.05,51.900000000000006,0)" xlink:href="#aL"/><use transform="matrix(0.05,0,0,0.05,61.900000000000006,0)" xlink:href="#aG"/></g><path d="M165-48c-4 18 1 34 23 27l-3 20c-29 8-62 0-52-35h-2C116-14 99 4 63 4 30 4 8-16 8-49c0-68 71-67 138-67 10-26 0-56-31-54-26 1-42 9-47 31l-32-5c8-67 160-71 144 15-5 28-9 54-15 81zM42-50c3 52 80 24 89-6 7-12 7-24 11-38-47 1-103-4-100 44" id="ba"/><path d="M55-144c13 50 104 24 104 88C159 21 15 23 1-39l26-10c6 40 102 42 102-4-13-50-104-23-104-87 0-71 143-71 148-8l-29 4c-5-35-85-37-89 0" id="bb"/><path d="M111-194c62-3 86 47 72 106H45c-7 38 6 69 45 68 27-1 43-14 53-32l24 11C152-15 129 4 87 4 38 3 12-23 12-71c0-70 32-119 99-123zm44 81c14-66-71-72-95-28-4 8-8 17-11 28h106" id="bc"/><path d="M66-151c12-25 30-51 66-40l-6 26C45-176 58-65 38 0H6l36-190h30" id="bd"/><path d="M51-54c-9 22 5 41 31 30L79-1C43 14 10-4 19-52l22-115H19l5-23h22l19-43h21l-9 43h35l-4 23H73" id="be"/><g id="B"><use transform="matrix(0.05,0,0,0.05,0,0)" xlink:href="#ba"/><use transform="matrix(0.05,0,0,0.05,10,0)" xlink:href="#bb"/><use transform="matrix(0.05,0,0,0.05,19,0)" xlink:href="#bb"/><use transform="matrix(0.05,0,0,0.05,28,0)" xlink:href="#bc"/><use transform="matrix(0.05,0,0,0.05,38,0)" xlink:href="#bd"/><use transform="matrix(0.05,0,0,0.05,43.95,0)" xlink:href="#be"/></g><path d="M67-162c32-53 139-36 121 50C175-51 163 2 97 4 68 4 52-11 42-31 38 6 28 39 22 75H-9l50-265h29c-1 10 0 20-3 28zm89 36c0-26-10-43-35-43-54 0-67 50-69 103-1 29 14 45 42 46 53 0 62-58 62-106" id="bf"/><path d="M44-68c0 29 11 47 38 47 30 0 42-19 51-41l28 9C148-21 126 4 82 4 31 4 10-29 12-85c3-77 74-140 146-93 12 8 15 23 18 40l-31 5c-1-22-13-36-36-36-52 0-65 49-65 101" id="bg"/><path d="M-28 44V31h207v13H-28" id="bh"/><path d="M133-28C103 26-5 8 13-77c13-62 24-115 90-117 29-1 46 15 56 35l19-102h32L160 0h-30zM45-64c-2 27 10 43 35 43 54-1 69-50 69-103 0-29-15-46-42-46-53-1-58 58-62 106" id="bi"/><path d="M50-231l6-30h32l-6 30H50zM6 0l37-190h31L37 0H6" id="bj"/><g id="C"><use transform="matrix(0.05,0,0,0.05,0,0)" xlink:href="#bb"/><use transform="matrix(0.05,0,0,0.05,9,0)" xlink:href="#bf"/><use transform="matrix(0.05,0,0,0.05,19,0)" xlink:href="#bc"/><use transform="matrix(0.05,0,0,0.05,29,0)" xlink:href="#bg"/><use transform="matrix(0.05,0,0,0.05,38,0)" xlink:href="#bh"/><use transform="matrix(0.05,0,0,0.05,48,0)" xlink:href="#bf"/><use transform="matrix(0.05,0,0,0.05,58,0)" xlink:href="#bd"/><use transform="matrix(0.05,0,0,0.05,63.95,0)" xlink:href="#bc"/><use transform="matrix(0.05,0,0,0.05,73.95,0)" xlink:href="#bi"/><use transform="matrix(0.05,0,0,0.05,83.95,0)" xlink:href="#bj"/><use transform="matrix(0.05,0,0,0.05,87.9,0)" xlink:href="#bg"/><use transform="matrix(0.05,0,0,0.05,96.9,0)" xlink:href="#ba"/><use transform="matrix(0.05,0,0,0.05,106.9,0)" xlink:href="#be"/><use transform="matrix(0.05,0,0,0.05,111.9,0)" xlink:href="#bc"/></g><g id="D"><use transform="matrix(0.05,0,0,0.05,0,0)" xlink:href="#aI"/><use transform="matrix(0.05,0,0,0.05,10,0)" xlink:href="#aA"/><use transform="matrix(0.05,0,0,0.05,19,0)" xlink:href="#aA"/><use transform="matrix(0.05,0,0,0.05,28,0)" xlink:href="#aB"/><use transform="matrix(0.05,0,0,0.05,38,0)" xlink:href="#aG"/><use transform="matrix(0.05,0,0,0.05,43.95,0)" xlink:href="#aR"/></g><g id="E"><use transform="matrix(0.05,0,0,0.05,0,0)" xlink:href="#aA"/><use transform="matrix(0.05,0,0,0.05,9,0)" xlink:href="#ay"/><use transform="matrix(0.05,0,0,0.05,19,0)" xlink:href="#aB"/><use transform="matrix(0.05,0,0,0.05,29,0)" xlink:href="#aC"/><use transform="matrix(0.05,0,0,0.05,38,0)" xlink:href="#aD"/><use transform="matrix(0.05,0,0,0.05,48,0)" xlink:href="#ay"/><use transform="matrix(0.05,0,0,0.05,58,0)" xlink:href="#aG"/><use transform="matrix(0.05,0,0,0.05,63.95,0)" xlink:href="#aB"/><use transform="matrix(0.05,0,0,0.05,73.95,0)" xlink:href="#aN"/><use transform="matrix(0.05,0,0,0.05,83.95,0)" xlink:href="#aK"/><use transform="matrix(0.05,0,0,0.05,87.9,0)" xlink:href="#aC"/><use transform="matrix(0.05,0,0,0.05,96.9,0)" xlink:href="#aI"/><use transform="matrix(0.05,0,0,0.05,106.9,0)" xlink:href="#aR"/><use transform="matrix(0.05,0,0,0.05,111.9,0)" xlink:href="#aB"/><use transform="matrix(0.05,0,0,0.05,121.9,0)" xlink:href="#aD"/><use transform="matrix(0.05,0,0,0.05,131.9,0)" xlink:href="#aG"/><use transform="matrix(0.05,0,0,0.05,137.85,0)" xlink:href="#aB"/><use transform="matrix(0.05,0,0,0.05,147.85,0)" xlink:href="#aC"/><use transform="matrix(0.05,0,0,0.05,156.85,0)" xlink:href="#aP"/><use transform="matrix(0.05,0,0,0.05,166.85,0)" xlink:href="#aG"/><use transform="matrix(0.05,0,0,0.05,172.79999999999998,0)" xlink:href="#aA"/><use transform="matrix(0.05,0,0,0.05,181.79999999999998,0)" xlink:href="#aW"/><use transform="matrix(0.05,0,0,0.05,190.79999999999998,0)" xlink:href="#aK"/><use transform="matrix(0.05,0,0,0.05,194.74999999999997,0)" xlink:href="#aB"/></g><g id="F"><use transform="matrix(0.05,0,0,0.05,0,0)" xlink:href="#aA"/><use transform="matrix(0.05,0,0,0.05,9,0)" xlink:href="#ay"/><use transform="matrix(0.05,0,0,0.05,19,0)" xlink:href="#aB"/><use transform="matrix(0.05,0,0,0.05,29,0)" xlink:href="#aC"/><use transform="matrix(0.05,0,0,0.05,38,0)" xlink:href="#aD"/><use transform="matrix(0.05,0,0,0.05,48,0)" xlink:href="#aK"/><use transform="matrix(0.05,0,0,0.05,51.95,0)" xlink:href="#aJ"/><use transform="matrix(0.05,0,0,0.05,61.95,0)" xlink:href="#aN"/><use transform="matrix(0.05,0,0,0.05,71.95,0)" xlink:href="#aK"/><use transform="matrix(0.05,0,0,0.05,75.9,0)" xlink:href="#aG"/><use transform="matrix(0.05,0,0,0.05,81.85000000000001,0)" xlink:href="#aB"/><use transform="matrix(0.05,0,0,0.05,91.85000000000001,0)" xlink:href="#aC"/><use transform="matrix(0.05,0,0,0.05,100.85000000000001,0)" xlink:href="#aR"/><use transform="matrix(0.05,0,0,0.05,105.85000000000001,0)" xlink:href="#aK"/><use transform="matrix(0.05,0,0,0.05,109.80000000000001,0)" xlink:href="#aL"/><use transform="matrix(0.05,0,0,0.05,119.80000000000001,0)" xlink:href="#aJ"/></g><g id="G"><use transform="matrix(0.05,0,0,0.05,0,0)" xlink:href="#aA"/><use transform="matrix(0.05,0,0,0.05,9,0)" xlink:href="#ay"/><use transform="matrix(0.05,0,0,0.05,19,0)" xlink:href="#aB"/><use transform="matrix(0.05,0,0,0.05,29,0)" xlink:href="#aC"/><use transform="matrix(0.05,0,0,0.05,38,0)" xlink:href="#aD"/><use transform="matrix(0.05,0,0,0.05,48,0)" xlink:href="#aC"/><use transform="matrix(0.05,0,0,0.05,57,0)" xlink:href="#aL"/><use transform="matrix(0.05,0,0,0.05,67,0)" xlink:href="#aJ"/><use transform="matrix(0.05,0,0,0.05,77,0)" xlink:href="#aJ"/><use transform="matrix(0.05,0,0,0.05,87,0)" xlink:href="#aB"/><use transform="matrix(0.05,0,0,0.05,97,0)" xlink:href="#aC"/><use transform="matrix(0.05,0,0,0.05,106,0)" xlink:href="#aR"/><use transform="matrix(0.05,0,0,0.05,111,0)" xlink:href="#aK"/><use transform="matrix(0.05,0,0,0.05,114.95,0)" xlink:href="#aW"/><use transform="matrix(0.05,0,0,0.05,123.95,0)" xlink:href="#aB"/></g><g id="H"><use transform="matrix(0.05,0,0,0.05,0,0)" xlink:href="#aA"/><use transform="matrix(0.05,0,0,0.05,9,0)" xlink:href="#ay"/><use transform="matrix(0.05,0,0,0.05,19,0)" xlink:href="#aB"/><use transform="matrix(0.05,0,0,0.05,29,0)" xlink:href="#aC"/><use transform="matrix(0.05,0,0,0.05,38,0)" xlink:href="#aD"/><use transform="matrix(0.05,0,0,0.05,48,0)" xlink:href="#aB"/><use transform="matrix(0.05,0,0,0.05,58,0)" xlink:href="#aH"/><use transform="matrix(0.05,0,0,0.05,67,0)" xlink:href="#aK"/><use transform="matrix(0.05,0,0,0.05,70.95,0)" xlink:href="#aA"/><use transform="matrix(0.05,0,0,0.05,79.95,0)" xlink:href="#aR"/><use transform="matrix(0.05,0,0,0.05,84.95,0)" xlink:href="#aA"/></g><path d="M0 4l72-265h28L28 4H0" id="bk"/><g id="I"><use transform="matrix(0.05,0,0,0.05,0,0)" xlink:href="#aX"/><use transform="matrix(0.05,0,0,0.05,10,0)" xlink:href="#bk"/><use transform="matrix(0.05,0,0,0.05,15,0)" xlink:href="#aT"/></g><g id="J"><use transform="matrix(0.05,0,0,0.05,0,0)" xlink:href="#aA"/><use transform="matrix(0.05,0,0,0.05,9,0)" xlink:href="#ay"/><use transform="matrix(0.05,0,0,0.05,19,0)" xlink:href="#aB"/><use transform="matrix(0.05,0,0,0.05,29,0)" xlink:href="#aC"/><use transform="matrix(0.05,0,0,0.05,38,0)" xlink:href="#aD"/><use transform="matrix(0.05,0,0,0.05,48,0)" xlink:href="#ay"/><use transform="matrix(0.05,0,0,0.05,58,0)" xlink:href="#aG"/><use transform="matrix(0.05,0,0,0.05,63.95,0)" xlink:href="#aB"/><use transform="matrix(0.05,0,0,0.05,73.95,0)" xlink:href="#aN"/><use transform="matrix(0.05,0,0,0.05,83.95,0)" xlink:href="#aK"/><use transform="matrix(0.05,0,0,0.05,87.9,0)" xlink:href="#aC"/><use transform="matrix(0.05,0,0,0.05,96.9,0)" xlink:href="#aI"/><use transform="matrix(0.05,0,0,0.05,106.9,0)" xlink:href="#aR"/><use transform="matrix(0.05,0,0,0.05,111.9,0)" xlink:href="#aB"/></g><g id="K"><use transform="matrix(0.05,0,0,0.05,0,0)" xlink:href="#aA"/><use transform="matrix(0.05,0,0,0.05,9,0)" xlink:href="#ay"/><use transform="matrix(0.05,0,0,0.05,19,0)" xlink:href="#aB"/><use transform="matrix(0.05,0,0,0.05,29,0)" xlink:href="#aC"/><use transform="matrix(0.05,0,0,0.05,38,0)" xlink:href="#aD"/><use transform="matrix(0.05,0,0,0.05,48,0)" xlink:href="#ay"/><use transform="matrix(0.05,0,0,0.05,58,0)" xlink:href="#aG"/><use transform="matrix(0.05,0,0,0.05,63.95,0)" xlink:href="#aB"/><use transform="matrix(0.05,0,0,0.05,73.95,0)" xlink:href="#aN"/><use transform="matrix(0.05,0,0,0.05,83.95,0)" xlink:href="#aK"/><use transform="matrix(0.05,0,0,0.05,87.9,0)" xlink:href="#aC"/><use transform="matrix(0.05,0,0,0.05,96.9,0)" xlink:href="#aI"/><use transform="matrix(0.05,0,0,0.05,106.9,0)" xlink:href="#aR"/><use transform="matrix(0.05,0,0,0.05,111.9,0)" xlink:href="#aB"/><use transform="matrix(0.05,0,0,0.05,121.9,0)" xlink:href="#aD"/><use transform="matrix(0.05,0,0,0.05,131.9,0)" xlink:href="#aG"/><use transform="matrix(0.05,0,0,0.05,137.85,0)" xlink:href="#aB"/><use transform="matrix(0.05,0,0,0.05,147.85,0)" xlink:href="#aC"/><use transform="matrix(0.05,0,0,0.05,156.85,0)" xlink:href="#aP"/><use transform="matrix(0.05,0,0,0.05,166.85,0)" xlink:href="#aG"/><use transform="matrix(0.05,0,0,0.05,172.79999999999998,0)" xlink:href="#aA"/><use transform="matrix(0.05,0,0,0.05,181.79999999999998,0)" xlink:href="#aK"/><use transform="matrix(0.05,0,0,0.05,185.74999999999997,0)" xlink:href="#aW"/><use transform="matrix(0.05,0,0,0.05,194.74999999999997,0)" xlink:href="#aB"/></g><use transform="matrix(0.05,0,0,0.05,0,0)" xlink:href="#aQ" id="L"/><g id="M"><use transform="matrix(0.05,0,0,0.05,0,0)" xlink:href="#aA"/><use transform="matrix(0.05,0,0,0.05,9,0)" xlink:href="#ay"/><use transform="matrix(0.05,0,0,0.05,19,0)" xlink:href="#aB"/><use transform="matrix(0.05,0,0,0.05,29,0)" xlink:href="#aC"/><use transform="matrix(0.05,0,0,0.05,38,0)" xlink:href="#aD"/><use transform="matrix(0.05,0,0,0.05,48,0)" xlink:href="#aK"/><use transform="matrix(0.05,0,0,0.05,51.95,0)" xlink:href="#aJ"/><use transform="matrix(0.05,0,0,0.05,61.95,0)" xlink:href="#aN"/><use transform="matrix(0.05,0,0,0.05,71.95,0)" xlink:href="#aK"/><use transform="matrix(0.05,0,0,0.05,75.9,0)" xlink:href="#aG"/><use transform="matrix(0.05,0,0,0.05,81.85000000000001,0)" xlink:href="#aB"/><use transform="matrix(0.05,0,0,0.05,91.85000000000001,0)" xlink:href="#aC"/><use transform="matrix(0.05,0,0,0.05,100.85000000000001,0)" xlink:href="#aR"/><use transform="matrix(0.05,0,0,0.05,105.85000000000001,0)" xlink:href="#aK"/><use transform="matrix(0.05,0,0,0.05,109.80000000000001,0)" xlink:href="#aL"/><use transform="matrix(0.05,0,0,0.05,119.80000000000001,0)" xlink:href="#aJ"/></g><g id="N"><use transform="matrix(0.05,0,0,0.05,0,0)" xlink:href="#aA"/><use transform="matrix(0.05,0,0,0.05,9,0)" xlink:href="#ay"/><use transform="matrix(0.05,0,0,0.05,19,0)" xlink:href="#aB"/><use transform="matrix(0.05,0,0,0.05,29,0)" xlink:href="#aC"/><use transform="matrix(0.05,0,0,0.05,38,0)" xlink:href="#aD"/><use transform="matrix(0.05,0,0,0.05,48,0)" xlink:href="#aC"/><use transform="matrix(0.05,0,0,0.05,57,0)" xlink:href="#aL"/><use transform="matrix(0.05,0,0,0.05,67,0)" xlink:href="#aJ"/><use transform="matrix(0.05,0,0,0.05,77,0)" xlink:href="#aJ"/><use transform="matrix(0.05,0,0,0.05,87,0)" xlink:href="#aB"/><use transform="matrix(0.05,0,0,0.05,97,0)" xlink:href="#aC"/><use transform="matrix(0.05,0,0,0.05,106,0)" xlink:href="#aR"/><use transform="matrix(0.05,0,0,0.05,111,0)" xlink:href="#aK"/><use transform="matrix(0.05,0,0,0.05,114.95,0)" xlink:href="#aW"/><use transform="matrix(0.05,0,0,0.05,123.95,0)" xlink:href="#aB"/></g><g id="O"><use transform="matrix(0.05,0,0,0.05,0,0)" xlink:href="#aW"/><use transform="matrix(0.05,0,0,0.05,9,0)" xlink:href="#aI"/><use transform="matrix(0.05,0,0,0.05,19,0)" xlink:href="#az"/><use transform="matrix(0.05,0,0,0.05,22.95,0)" xlink:href="#aK"/><use transform="matrix(0.05,0,0,0.05,26.899999999999995,0)" xlink:href="#aN"/></g><g id="P"><use transform="matrix(0.05,0,0,0.05,0,0)" xlink:href="#aB"/><use transform="matrix(0.05,0,0,0.05,10,0)" xlink:href="#aW"/><use transform="matrix(0.05,0,0,0.05,19,0)" xlink:href="#aI"/><use transform="matrix(0.05,0,0,0.05,29,0)" xlink:href="#az"/><use transform="matrix(0.05,0,0,0.05,32.95,0)" xlink:href="#aP"/><use transform="matrix(0.05,0,0,0.05,42.95,0)" xlink:href="#aI"/><use transform="matrix(0.05,0,0,0.05,52.95,0)" xlink:href="#aR"/><use transform="matrix(0.05,0,0,0.05,57.95,0)" xlink:href="#aB"/><use transform="matrix(0.05,0,0,0.05,67.95,0)" xlink:href="#aD"/><use transform="matrix(0.05,0,0,0.05,77.95,0)" xlink:href="#aA"/><use transform="matrix(0.05,0,0,0.05,86.95,0)" xlink:href="#ay"/><use transform="matrix(0.05,0,0,0.05,96.95,0)" xlink:href="#aB"/><use transform="matrix(0.05,0,0,0.05,106.95,0)" xlink:href="#aC"/><use transform="matrix(0.05,0,0,0.05,115.95,0)" xlink:href="#aD"/><use transform="matrix(0.05,0,0,0.05,125.95,0)" xlink:href="#aS"/><use transform="matrix(0.05,0,0,0.05,140.9,0)" xlink:href="#aI"/><use transform="matrix(0.05,0,0,0.05,150.9,0)" xlink:href="#aR"/><use transform="matrix(0.05,0,0,0.05,155.9,0)" xlink:href="#aC"/><use transform="matrix(0.05,0,0,0.05,164.9,0)" xlink:href="#aE"/></g><g id="Q"><use transform="matrix(0.05,0,0,0.05,0,0)" xlink:href="#aB"/><use transform="matrix(0.05,0,0,0.05,10,0)" xlink:href="#aW"/><use transform="matrix(0.05,0,0,0.05,19,0)" xlink:href="#aI"/><use transform="matrix(0.05,0,0,0.05,29,0)" xlink:href="#az"/><use transform="matrix(0.05,0,0,0.05,32.95,0)" xlink:href="#aP"/><use transform="matrix(0.05,0,0,0.05,42.95,0)" xlink:href="#aI"/><use transform="matrix(0.05,0,0,0.05,52.95,0)" xlink:href="#aR"/><use transform="matrix(0.05,0,0,0.05,57.95,0)" xlink:href="#aB"/><use transform="matrix(0.05,0,0,0.05,67.95,0)" xlink:href="#aD"/><use transform="matrix(0.05,0,0,0.05,77.95,0)" xlink:href="#aA"/><use transform="matrix(0.05,0,0,0.05,86.95,0)" xlink:href="#ay"/><use transform="matrix(0.05,0,0,0.05,96.95,0)" xlink:href="#aB"/><use transform="matrix(0.05,0,0,0.05,106.95,0)" xlink:href="#aC"/><use transform="matrix(0.05,0,0,0.05,115.95,0)" xlink:href="#aD"/><use transform="matrix(0.05,0,0,0.05,125.95,0)" xlink:href="#aS"/><use transform="matrix(0.05,0,0,0.05,140.9,0)" xlink:href="#aI"/><use transform="matrix(0.05,0,0,0.05,150.9,0)" xlink:href="#aR"/><use transform="matrix(0.05,0,0,0.05,155.9,0)" xlink:href="#aC"/><use transform="matrix(0.05,0,0,0.05,164.9,0)" xlink:href="#aE"/><use transform="matrix(0.05,0,0,0.05,174.9,0)" xlink:href="#aD"/><use transform="matrix(0.05,0,0,0.05,184.9,0)" xlink:href="#aI"/><use transform="matrix(0.05,0,0,0.05,194.9,0)" xlink:href="#aP"/><use transform="matrix(0.05,0,0,0.05,204.9,0)" xlink:href="#aH"/></g><g id="R"><use transform="matrix(0.05,0,0,0.05,0,0)" xlink:href="#az"/><use transform="matrix(0.05,0,0,0.05,3.95,0)" xlink:href="#aK"/><use transform="matrix(0.05,0,0,0.05,7.9,0)" xlink:href="#aA"/><use transform="matrix(0.05,0,0,0.05,16.9,0)" xlink:href="#aR"/></g><g id="S"><use transform="matrix(0.05,0,0,0.05,0,0)" xlink:href="#aC"/><use transform="matrix(0.05,0,0,0.05,9,0)" xlink:href="#aL"/><use transform="matrix(0.05,0,0,0.05,19,0)" xlink:href="#aS"/><use transform="matrix(0.05,0,0,0.05,33.95,0)" xlink:href="#ay"/><use transform="matrix(0.05,0,0,0.05,43.95,0)" xlink:href="#aL"/><use transform="matrix(0.05,0,0,0.05,53.95,0)" xlink:href="#aP"/><use transform="matrix(0.05,0,0,0.05,63.95,0)" xlink:href="#aJ"/><use transform="matrix(0.05,0,0,0.05,73.95,0)" xlink:href="#aN"/></g><g id="T"><use transform="matrix(0.05,0,0,0.05,0,0)" xlink:href="#aR"/><use transform="matrix(0.05,0,0,0.05,5,0)" xlink:href="#aP"/><use transform="matrix(0.05,0,0,0.05,15,0)" xlink:href="#ay"/><use transform="matrix(0.05,0,0,0.05,25,0)" xlink:href="#az"/><use transform="matrix(0.05,0,0,0.05,28.950000000000003,0)" xlink:href="#aB"/></g><g id="U"><use transform="matrix(0.05,0,0,0.05,0,0)" xlink:href="#aA"/><use transform="matrix(0.05,0,0,0.05,9,0)" xlink:href="#ay"/><use transform="matrix(0.05,0,0,0.05,19,0)" xlink:href="#aB"/><use transform="matrix(0.05,0,0,0.05,29,0)" xlink:href="#aC"/><use transform="matrix(0.05,0,0,0.05,38,0)" xlink:href="#aD"/><use transform="matrix(0.05,0,0,0.05,48,0)" xlink:href="#aI"/><use transform="matrix(0.05,0,0,0.05,58,0)" xlink:href="#aJ"/><use transform="matrix(0.05,0,0,0.05,68,0)" xlink:href="#aN"/></g><g id="V"><use transform="matrix(0.05,0,0,0.05,0,0)" xlink:href="#aI"/><use transform="matrix(0.05,0,0,0.05,10,0)" xlink:href="#aJ"/><use transform="matrix(0.05,0,0,0.05,20,0)" xlink:href="#aN"/></g><g id="W"><use transform="matrix(0.05,0,0,0.05,0,0)" xlink:href="#aL"/><use transform="matrix(0.05,0,0,0.05,10,0)" xlink:href="#aG"/></g><g id="X"><use transform="matrix(0.05,0,0,0.05,0,0)" xlink:href="#ay"/><use transform="matrix(0.05,0,0,0.05,10,0)" xlink:href="#aG"/><use transform="matrix(0.05,0,0,0.05,15.949999999999998,0)" xlink:href="#aB"/><use transform="matrix(0.05,0,0,0.05,25.950000000000003,0)" xlink:href="#aR"/><use transform="matrix(0.05,0,0,0.05,30.950000000000003,0)" xlink:href="#aR"/><use transform="matrix(0.05,0,0,0.05,35.95,0)" xlink:href="#aV"/><use transform="matrix(0.05,0,0,0.05,44.95,0)" xlink:href="#ay"/><use transform="matrix(0.05,0,0,0.05,54.95,0)" xlink:href="#aG"/><use transform="matrix(0.05,0,0,0.05,60.900000000000006,0)" xlink:href="#aK"/><use transform="matrix(0.05,0,0,0.05,64.85000000000001,0)" xlink:href="#aJ"/><use transform="matrix(0.05,0,0,0.05,74.85000000000001,0)" xlink:href="#aR"/><use transform="matrix(0.05,0,0,0.05,79.85000000000001,0)" xlink:href="#aB"/><use transform="matrix(0.05,0,0,0.05,89.85000000000001,0)" xlink:href="#aG"/></g><g id="Y"><use transform="matrix(0.05,0,0,0.05,0,0)" xlink:href="#ay"/><use transform="matrix(0.05,0,0,0.05,10,0)" xlink:href="#aG"/><use transform="matrix(0.05,0,0,0.05,15.949999999999998,0)" xlink:href="#aB"/><use transform="matrix(0.05,0,0,0.05,25.950000000000003,0)" xlink:href="#aR"/><use transform="matrix(0.05,0,0,0.05,30.950000000000003,0)" xlink:href="#aR"/><use transform="matrix(0.05,0,0,0.05,35.95,0)" xlink:href="#aV"/><use transform="matrix(0.05,0,0,0.05,44.95,0)" xlink:href="#aD"/><use transform="matrix(0.05,0,0,0.05,54.95,0)" xlink:href="#ay"/><use transform="matrix(0.05,0,0,0.05,64.95,0)" xlink:href="#aG"/><use transform="matrix(0.05,0,0,0.05,70.9,0)" xlink:href="#aK"/><use transform="matrix(0.05,0,0,0.05,74.85000000000001,0)" xlink:href="#aJ"/><use transform="matrix(0.05,0,0,0.05,84.85000000000001,0)" xlink:href="#aR"/><use transform="matrix(0.05,0,0,0.05,89.85000000000001,0)" xlink:href="#aD"/><use transform="matrix(0.05,0,0,0.05,99.85000000000001,0)" xlink:href="#aB"/><use transform="matrix(0.05,0,0,0.05,109.85000000000001,0)" xlink:href="#aG"/><use transform="matrix(0.05,0,0,0.05,115.80000000000001,0)" xlink:href="#aG"/><use transform="matrix(0.05,0,0,0.05,121.75,0)" xlink:href="#aL"/><use transform="matrix(0.05,0,0,0.05,131.75,0)" xlink:href="#aG"/></g><use transform="matrix(0.05,0,0,0.05,0,0)" xlink:href="#aX" id="Z"/><g id="aa"><use transform="matrix(0.05,0,0,0.05,0,0)" xlink:href="#ay"/><use transform="matrix(0.05,0,0,0.05,10,0)" xlink:href="#az"/><use transform="matrix(0.05,0,0,0.05,13.949999999999998,0)" xlink:href="#aA"/><use transform="matrix(0.05,0,0,0.05,22.95,0)" xlink:href="#ay"/><use transform="matrix(0.05,0,0,0.05,32.95,0)" xlink:href="#aB"/><use transform="matrix(0.05,0,0,0.05,42.95,0)" xlink:href="#aC"/></g><g id="ab"><use transform="matrix(0.05,0,0,0.05,0,0)" xlink:href="#aN"/><use transform="matrix(0.05,0,0,0.05,10,0)" xlink:href="#aB"/><use transform="matrix(0.05,0,0,0.05,20,0)" xlink:href="#aU"/><use transform="matrix(0.05,0,0,0.05,25,0)" xlink:href="#aA"/><use transform="matrix(0.05,0,0,0.05,34,0)" xlink:href="#ay"/><use transform="matrix(0.05,0,0,0.05,44,0)" xlink:href="#aG"/><use transform="matrix(0.05,0,0,0.05,49.95,0)" xlink:href="#aB"/><use transform="matrix(0.05,0,0,0.05,59.95,0)" xlink:href="#aC"/><use transform="matrix(0.05,0,0,0.05,68.95,0)" xlink:href="#aD"/><use transform="matrix(0.05,0,0,0.05,78.95,0)" xlink:href="#ay"/><use transform="matrix(0.05,0,0,0.05,88.95,0)" xlink:href="#aG"/><use transform="matrix(0.05,0,0,0.05,94.9,0)" xlink:href="#aB"/><use transform="matrix(0.05,0,0,0.05,104.9,0)" xlink:href="#aN"/></g><g id="ac"><use transform="matrix(0.05,0,0,0.05,0,0)" xlink:href="#aN"/><use transform="matrix(0.05,0,0,0.05,10,0)" xlink:href="#aB"/><use transform="matrix(0.05,0,0,0.05,20,0)" xlink:href="#aU"/><use transform="matrix(0.05,0,0,0.05,25,0)" xlink:href="#aA"/><use transform="matrix(0.05,0,0,0.05,34,0)" xlink:href="#ay"/><use transform="matrix(0.05,0,0,0.05,44,0)" xlink:href="#aB"/><use transform="matrix(0.05,0,0,0.05,54,0)" xlink:href="#aC"/><use transform="matrix(0.05,0,0,0.05,63,0)" xlink:href="#aD"/><use transform="matrix(0.05,0,0,0.05,73,0)" xlink:href="#ay"/><use transform="matrix(0.05,0,0,0.05,83,0)" xlink:href="#aG"/><use transform="matrix(0.05,0,0,0.05,88.95,0)" xlink:href="#aB"/><use transform="matrix(0.05,0,0,0.05,98.95,0)" xlink:href="#aN"/><use transform="matrix(0.05,0,0,0.05,108.95,0)" xlink:href="#aD"/><use transform="matrix(0.05,0,0,0.05,118.95,0)" xlink:href="#aG"/><use transform="matrix(0.05,0,0,0.05,124.9,0)" xlink:href="#aB"/><use transform="matrix(0.05,0,0,0.05,134.9,0)" xlink:href="#aC"/><use transform="matrix(0.05,0,0,0.05,143.9,0)" xlink:href="#aP"/><use transform="matrix(0.05,0,0,0.05,153.9,0)" xlink:href="#aG"/><use transform="matrix(0.05,0,0,0.05,159.85,0)" xlink:href="#aA"/><use transform="matrix(0.05,0,0,0.05,168.85,0)" xlink:href="#aK"/><use transform="matrix(0.05,0,0,0.05,172.79999999999998,0)" xlink:href="#aW"/><use transform="matrix(0.05,0,0,0.05,181.79999999999998,0)" xlink:href="#aB"/></g><g id="ad"><use transform="matrix(0.05,0,0,0.05,0,0)" xlink:href="#aN"/><use transform="matrix(0.05,0,0,0.05,10,0)" xlink:href="#aB"/><use transform="matrix(0.05,0,0,0.05,20,0)" xlink:href="#aU"/><use transform="matrix(0.05,0,0,0.05,25,0)" xlink:href="#aA"/><use transform="matrix(0.05,0,0,0.05,34,0)" xlink:href="#ay"/><use transform="matrix(0.05,0,0,0.05,44,0)" xlink:href="#aB"/><use transform="matrix(0.05,0,0,0.05,54,0)" xlink:href="#aC"/></g><g id="ae"><use transform="matrix(0.05,0,0,0.05,0,0)" xlink:href="#aN"/><use transform="matrix(0.05,0,0,0.05,10,0)" xlink:href="#aB"/><use transform="matrix(0.05,0,0,0.05,20,0)" xlink:href="#aU"/><use transform="matrix(0.05,0,0,0.05,25,0)" xlink:href="#aA"/><use transform="matrix(0.05,0,0,0.05,34,0)" xlink:href="#ay"/><use transform="matrix(0.05,0,0,0.05,44,0)" xlink:href="#aB"/><use transform="matrix(0.05,0,0,0.05,54,0)" xlink:href="#aC"/><use transform="matrix(0.05,0,0,0.05,63,0)" xlink:href="#aD"/><use transform="matrix(0.05,0,0,0.05,73,0)" xlink:href="#aC"/><use transform="matrix(0.05,0,0,0.05,82,0)" xlink:href="#aL"/><use transform="matrix(0.05,0,0,0.05,92,0)" xlink:href="#aJ"/><use transform="matrix(0.05,0,0,0.05,102,0)" xlink:href="#aJ"/><use transform="matrix(0.05,0,0,0.05,112,0)" xlink:href="#aB"/><use transform="matrix(0.05,0,0,0.05,122,0)" xlink:href="#aC"/><use transform="matrix(0.05,0,0,0.05,131,0)" xlink:href="#aR"/><use transform="matrix(0.05,0,0,0.05,136,0)" xlink:href="#aK"/><use transform="matrix(0.05,0,0,0.05,139.95,0)" xlink:href="#aW"/><use transform="matrix(0.05,0,0,0.05,148.95,0)" xlink:href="#aB"/></g><g id="af"><use transform="matrix(0.05,0,0,0.05,0,0)" xlink:href="#aC"/><use transform="matrix(0.05,0,0,0.05,9,0)" xlink:href="#aE"/><use transform="matrix(0.05,0,0,0.05,19,0)" xlink:href="#aB"/><use transform="matrix(0.05,0,0,0.05,29,0)" xlink:href="#aC"/><use transform="matrix(0.05,0,0,0.05,38,0)" xlink:href="#aF"/><use transform="matrix(0.05,0,0,0.05,47,0)" xlink:href="#aD"/><use transform="matrix(0.05,0,0,0.05,57,0)" xlink:href="#aK"/><use transform="matrix(0.05,0,0,0.05,60.95,0)" xlink:href="#aU"/><use transform="matrix(0.05,0,0,0.05,65.95,0)" xlink:href="#aD"/><use transform="matrix(0.05,0,0,0.05,75.95,0)" xlink:href="#aA"/><use transform="matrix(0.05,0,0,0.05,84.95,0)" xlink:href="#ay"/><use transform="matrix(0.05,0,0,0.05,94.95,0)" xlink:href="#aB"/><use transform="matrix(0.05,0,0,0.05,104.95,0)" xlink:href="#aC"/><use transform="matrix(0.05,0,0,0.05,113.95,0)" xlink:href="#aD"/><use transform="matrix(0.05,0,0,0.05,123.95,0)" xlink:href="#aJ"/><use transform="matrix(0.05,0,0,0.05,133.95,0)" xlink:href="#aL"/><use transform="matrix(0.05,0,0,0.05,143.95,0)" xlink:href="#aR"/><use transform="matrix(0.05,0,0,0.05,148.95,0)" xlink:href="#aD"/><use transform="matrix(0.05,0,0,0.05,158.95,0)" xlink:href="#aB"/><use transform="matrix(0.05,0,0,0.05,168.95,0)" xlink:href="#aH"/><use transform="matrix(0.05,0,0,0.05,177.95,0)" xlink:href="#aK"/><use transform="matrix(0.05,0,0,0.05,181.89999999999998,0)" xlink:href="#aA"/><use transform="matrix(0.05,0,0,0.05,190.89999999999998,0)" xlink:href="#aR"/><use transform="matrix(0.05,0,0,0.05,195.89999999999998,0)" xlink:href="#aA"/></g><g id="ag"><use transform="matrix(0.05,0,0,0.05,0,0)" xlink:href="#aA"/><use transform="matrix(0.05,0,0,0.05,9,0)" xlink:href="#aB"/><use transform="matrix(0.05,0,0,0.05,19,0)" xlink:href="#aR"/><use transform="matrix(0.05,0,0,0.05,24,0)" xlink:href="#aP"/><use transform="matrix(0.05,0,0,0.05,34,0)" xlink:href="#ay"/><use transform="matrix(0.05,0,0,0.05,44,0)" xlink:href="#aD"/><use transform="matrix(0.05,0,0,0.05,54,0)" xlink:href="#aP"/><use transform="matrix(0.05,0,0,0.05,64,0)" xlink:href="#aZ"/><use transform="matrix(0.05,0,0,0.05,74,0)" xlink:href="#aB"/><use transform="matrix(0.05,0,0,0.05,84,0)" xlink:href="#aG"/><use transform="matrix(0.05,0,0,0.05,89.95,0)" xlink:href="#aD"/><use transform="matrix(0.05,0,0,0.05,99.95,0)" xlink:href="#aC"/><use transform="matrix(0.05,0,0,0.05,108.95,0)" xlink:href="#aE"/><use transform="matrix(0.05,0,0,0.05,118.95,0)" xlink:href="#aB"/><use transform="matrix(0.05,0,0,0.05,128.95,0)" xlink:href="#aC"/><use transform="matrix(0.05,0,0,0.05,137.95,0)" xlink:href="#aF"/></g><path d="M206 0h-36l-40-164L89 0H53L-1-190h32L70-26l43-164h34l41 164 42-164h31" id="bl"/><g id="ah"><use transform="matrix(0.05,0,0,0.05,0,0)" xlink:href="#bl"/><use transform="matrix(0.05,0,0,0.05,12.950000000000001,0)" xlink:href="#aE"/><use transform="matrix(0.05,0,0,0.05,22.950000000000003,0)" xlink:href="#aK"/><use transform="matrix(0.05,0,0,0.05,26.900000000000002,0)" xlink:href="#aC"/><use transform="matrix(0.05,0,0,0.05,35.900000000000006,0)" xlink:href="#aE"/><use transform="matrix(0.05,0,0,0.05,45.900000000000006,0)" xlink:href="#aD"/><use transform="matrix(0.05,0,0,0.05,55.900000000000006,0)" xlink:href="#ay"/><use transform="matrix(0.05,0,0,0.05,65.9,0)" xlink:href="#aL"/><use transform="matrix(0.05,0,0,0.05,75.9,0)" xlink:href="#aA"/><use transform="matrix(0.05,0,0,0.05,84.9,0)" xlink:href="#aR"/></g><path d="M54-142c48-35 137-8 131 61C196 18 31 33 14-55l32-4c7 23 22 37 52 37 35-1 51-22 54-58 4-55-73-65-99-34H22l8-134h141v27H59" id="bm"/><use transform="matrix(0.05,0,0,0.05,0,0)" xlink:href="#bm" id="ai"/><g id="aj"><use transform="matrix(0.05,0,0,0.05,0,0)" xlink:href="#aC"/><use transform="matrix(0.05,0,0,0.05,9,0)" xlink:href="#aE"/><use transform="matrix(0.05,0,0,0.05,19,0)" xlink:href="#aB"/><use transform="matrix(0.05,0,0,0.05,29,0)" xlink:href="#aC"/><use transform="matrix(0.05,0,0,0.05,38,0)" xlink:href="#aF"/><use transform="matrix(0.05,0,0,0.05,47,0)" xlink:href="#aD"/><use transform="matrix(0.05,0,0,0.05,57,0)" xlink:href="#ay"/><use transform="matrix(0.05,0,0,0.05,67,0)" xlink:href="#aL"/><use transform="matrix(0.05,0,0,0.05,77,0)" xlink:href="#aA"/><use transform="matrix(0.05,0,0,0.05,86,0)" xlink:href="#aR"/><use transform="matrix(0.05,0,0,0.05,91,0)" xlink:href="#aA"/></g><g id="ak"><use transform="matrix(0.05,0,0,0.05,0,0)" xlink:href="#ay"/><use transform="matrix(0.05,0,0,0.05,10,0)" xlink:href="#az"/><use transform="matrix(0.05,0,0,0.05,13.949999999999998,0)" xlink:href="#aA"/><use transform="matrix(0.05,0,0,0.05,22.95,0)" xlink:href="#ay"/><use transform="matrix(0.05,0,0,0.05,32.95,0)" xlink:href="#aB"/><use transform="matrix(0.05,0,0,0.05,42.95,0)" xlink:href="#aC"/><use transform="matrix(0.05,0,0,0.05,51.95,0)" xlink:href="#aD"/><use transform="matrix(0.05,0,0,0.05,61.95,0)" xlink:href="#aA"/><use transform="matrix(0.05,0,0,0.05,70.95,0)" xlink:href="#aL"/><use transform="matrix(0.05,0,0,0.05,80.95,0)" xlink:href="#aS"/><use transform="matrix(0.05,0,0,0.05,95.9,0)" xlink:href="#aB"/></g><g id="al"><use transform="matrix(0.05,0,0,0.05,0,0)" xlink:href="#aB"/><use transform="matrix(0.05,0,0,0.05,10,0)" xlink:href="#aG"/><use transform="matrix(0.05,0,0,0.05,15.949999999999998,0)" xlink:href="#aG"/><use transform="matrix(0.05,0,0,0.05,21.9,0)" xlink:href="#aL"/><use transform="matrix(0.05,0,0,0.05,31.899999999999995,0)" xlink:href="#aG"/><use transform="matrix(0.05,0,0,0.05,37.85,0)" xlink:href="#aD"/><use transform="matrix(0.05,0,0,0.05,47.85,0)" xlink:href="#aJ"/><use transform="matrix(0.05,0,0,0.05,57.85,0)" xlink:href="#aL"/><use transform="matrix(0.05,0,0,0.05,67.85,0)" xlink:href="#aR"/><use transform="matrix(0.05,0,0,0.05,72.85,0)" xlink:href="#aD"/><use transform="matrix(0.05,0,0,0.05,82.85,0)" xlink:href="#aS"/><use transform="matrix(0.05,0,0,0.05,97.8,0)" xlink:href="#aI"/><use transform="matrix(0.05,0,0,0.05,107.80000000000001,0)" xlink:href="#aR"/><use transform="matrix(0.05,0,0,0.05,112.80000000000001,0)" xlink:href="#aC"/><use transform="matrix(0.05,0,0,0.05,121.80000000000001,0)" xlink:href="#aE"/><use transform="matrix(0.05,0,0,0.05,131.8,0)" xlink:href="#aK"/><use transform="matrix(0.05,0,0,0.05,135.75,0)" xlink:href="#aJ"/><use transform="matrix(0.05,0,0,0.05,145.75,0)" xlink:href="#aY"/><use transform="matrix(0.05,0,0,0.05,155.75,0)" xlink:href="#aD"/><use transform="matrix(0.05,0,0,0.05,165.75,0)" xlink:href="#aI"/><use transform="matrix(0.05,0,0,0.05,175.75,0)" xlink:href="#aJ"/><use transform="matrix(0.05,0,0,0.05,185.75,0)" xlink:href="#aV"/><use transform="matrix(0.05,0,0,0.05,194.75,0)" xlink:href="#aD"/><use transform="matrix(0.05,0,0,0.05,204.75,0)" xlink:href="#ay"/><use transform="matrix(0.05,0,0,0.05,214.75,0)" xlink:href="#aG"/><use transform="matrix(0.05,0,0,0.05,220.69999999999996,0)" xlink:href="#aB"/></g><g id="am"><use transform="matrix(0.05,0,0,0.05,0,0)" xlink:href="#aB"/><use transform="matrix(0.05,0,0,0.05,10,0)" xlink:href="#aJ"/><use transform="matrix(0.05,0,0,0.05,20,0)" xlink:href="#aI"/><use transform="matrix(0.05,0,0,0.05,30,0)" xlink:href="#aZ"/><use transform="matrix(0.05,0,0,0.05,40,0)" xlink:href="#az"/><use transform="matrix(0.05,0,0,0.05,43.95,0)" xlink:href="#aB"/><use transform="matrix(0.05,0,0,0.05,53.95,0)" xlink:href="#aD"/><use transform="matrix(0.05,0,0,0.05,63.95,0)" xlink:href="#aI"/><use transform="matrix(0.05,0,0,0.05,73.95,0)" xlink:href="#az"/><use transform="matrix(0.05,0,0,0.05,77.9,0)" xlink:href="#az"/><use transform="matrix(0.05,0,0,0.05,81.85000000000001,0)" xlink:href="#aD"/><use transform="matrix(0.05,0,0,0.05,91.85000000000001,0)" xlink:href="#aA"/><use transform="matrix(0.05,0,0,0.05,100.85000000000001,0)" xlink:href="#ay"/><use transform="matrix(0.05,0,0,0.05,110.85000000000001,0)" xlink:href="#aB"/><use transform="matrix(0.05,0,0,0.05,120.85000000000001,0)" xlink:href="#aC"/><use transform="matrix(0.05,0,0,0.05,129.85000000000002,0)" xlink:href="#aD"/><use transform="matrix(0.05,0,0,0.05,139.85000000000002,0)" xlink:href="#aC"/><use transform="matrix(0.05,0,0,0.05,148.85000000000002,0)" xlink:href="#aE"/><use transform="matrix(0.05,0,0,0.05,158.85000000000002,0)" xlink:href="#aB"/><use transform="matrix(0.05,0,0,0.05,168.85000000000002,0)" xlink:href="#aC"/><use transform="matrix(0.05,0,0,0.05,177.85000000000002,0)" xlink:href="#aF"/><use transform="matrix(0.05,0,0,0.05,186.85000000000002,0)" xlink:href="#aA"/></g><path d="M101-251c68 0 85 55 85 127S166 4 100 4C33 4 14-52 14-124c0-73 17-127 87-127zm-1 229c47 0 54-49 54-102s-4-102-53-102c-51 0-55 48-55 102 0 53 5 102 54 102" id="bn"/><use transform="matrix(0.05,0,0,0.05,0,0)" xlink:href="#bn" id="an"/><g id="ao"><use transform="matrix(0.05,0,0,0.05,0,0)" xlink:href="#aB"/><use transform="matrix(0.05,0,0,0.05,10,0)" xlink:href="#aJ"/><use transform="matrix(0.05,0,0,0.05,20,0)" xlink:href="#aI"/><use transform="matrix(0.05,0,0,0.05,30,0)" xlink:href="#aZ"/><use transform="matrix(0.05,0,0,0.05,40,0)" xlink:href="#az"/><use transform="matrix(0.05,0,0,0.05,43.95,0)" xlink:href="#aB"/><use transform="matrix(0.05,0,0,0.05,53.95,0)" xlink:href="#aD"/><use transform="matrix(0.05,0,0,0.05,63.95,0)" xlink:href="#aA"/><use transform="matrix(0.05,0,0,0.05,72.95,0)" xlink:href="#ay"/><use transform="matrix(0.05,0,0,0.05,82.95,0)" xlink:href="#aB"/><use transform="matrix(0.05,0,0,0.05,92.95,0)" xlink:href="#aC"/><use transform="matrix(0.05,0,0,0.05,101.95,0)" xlink:href="#aD"/><use transform="matrix(0.05,0,0,0.05,111.95,0)" xlink:href="#aC"/><use transform="matrix(0.05,0,0,0.05,120.95,0)" xlink:href="#aE"/><use transform="matrix(0.05,0,0,0.05,130.95,0)" xlink:href="#aB"/><use transform="matrix(0.05,0,0,0.05,140.95,0)" xlink:href="#aC"/><use transform="matrix(0.05,0,0,0.05,149.95,0)" xlink:href="#aF"/></g><g id="ap"><use transform="matrix(0.05,0,0,0.05,0,0)" xlink:href="#aA"/><use transform="matrix(0.05,0,0,0.05,9,0)" xlink:href="#ay"/><use transform="matrix(0.05,0,0,0.05,19,0)" xlink:href="#aB"/><use transform="matrix(0.05,0,0,0.05,29,0)" xlink:href="#aC"/><use transform="matrix(0.05,0,0,0.05,38,0)" xlink:href="#aD"/><use transform="matrix(0.05,0,0,0.05,48,0)" xlink:href="#ay"/><use transform="matrix(0.05,0,0,0.05,58,0)" xlink:href="#aL"/><use transform="matrix(0.05,0,0,0.05,68,0)" xlink:href="#aA"/><use transform="matrix(0.05,0,0,0.05,77,0)" xlink:href="#aR"/></g><g id="aq"><use transform="matrix(0.05,0,0,0.05,0,0)" xlink:href="#aA"/><use transform="matrix(0.05,0,0,0.05,9,0)" xlink:href="#ay"/><use transform="matrix(0.05,0,0,0.05,19,0)" xlink:href="#aB"/><use transform="matrix(0.05,0,0,0.05,29,0)" xlink:href="#aC"/><use transform="matrix(0.05,0,0,0.05,38,0)" xlink:href="#aD"/><use transform="matrix(0.05,0,0,0.05,48,0)" xlink:href="#aK"/><use transform="matrix(0.05,0,0,0.05,51.95,0)" xlink:href="#aJ"/><use transform="matrix(0.05,0,0,0.05,61.95,0)" xlink:href="#aW"/><use transform="matrix(0.05,0,0,0.05,70.95,0)" xlink:href="#aI"/><use transform="matrix(0.05,0,0,0.05,80.95,0)" xlink:href="#aG"/><use transform="matrix(0.05,0,0,0.05,86.9,0)" xlink:href="#aK"/><use transform="matrix(0.05,0,0,0.05,90.85000000000001,0)" xlink:href="#aI"/><use transform="matrix(0.05,0,0,0.05,100.85000000000001,0)" xlink:href="#aJ"/><use transform="matrix(0.05,0,0,0.05,110.85000000000001,0)" xlink:href="#aR"/></g><g id="ar"><use transform="matrix(0.05,0,0,0.05,0,0)" xlink:href="#aA"/><use transform="matrix(0.05,0,0,0.05,9,0)" xlink:href="#ay"/><use transform="matrix(0.05,0,0,0.05,19,0)" xlink:href="#aB"/><use transform="matrix(0.05,0,0,0.05,29,0)" xlink:href="#aC"/><use transform="matrix(0.05,0,0,0.05,38,0)" xlink:href="#aD"/><use transform="matrix(0.05,0,0,0.05,48,0)" xlink:href="#ay"/><use transform="matrix(0.05,0,0,0.05,58,0)" xlink:href="#aG"/><use transform="matrix(0.05,0,0,0.05,63.95,0)" xlink:href="#aB"/></g><g id="as"><use transform="matrix(0.05,0,0,0.05,0,0)" xlink:href="#aA"/><use transform="matrix(0.05,0,0,0.05,9,0)" xlink:href="#aB"/><use transform="matrix(0.05,0,0,0.05,19,0)" xlink:href="#aR"/><use transform="matrix(0.05,0,0,0.05,24,0)" xlink:href="#aD"/><use transform="matrix(0.05,0,0,0.05,34,0)" xlink:href="#aB"/><use transform="matrix(0.05,0,0,0.05,44,0)" xlink:href="#aG"/><use transform="matrix(0.05,0,0,0.05,49.95,0)" xlink:href="#aG"/><use transform="matrix(0.05,0,0,0.05,55.900000000000006,0)" xlink:href="#aL"/><use transform="matrix(0.05,0,0,0.05,65.9,0)" xlink:href="#aG"/><use transform="matrix(0.05,0,0,0.05,71.85000000000001,0)" xlink:href="#aD"/><use transform="matrix(0.05,0,0,0.05,81.85000000000001,0)" xlink:href="#aE"/><use transform="matrix(0.05,0,0,0.05,91.85000000000001,0)" xlink:href="#aI"/><use transform="matrix(0.05,0,0,0.05,101.85000000000001,0)" xlink:href="#aJ"/><use transform="matrix(0.05,0,0,0.05,111.85000000000001,0)" xlink:href="#aN"/><use transform="matrix(0.05,0,0,0.05,121.85000000000001,0)" xlink:href="#az"/><use transform="matrix(0.05,0,0,0.05,125.80000000000001,0)" xlink:href="#aB"/><use transform="matrix(0.05,0,0,0.05,135.8,0)" xlink:href="#aG"/></g><g id="at"><use transform="matrix(0.05,0,0,0.05,0,0)" xlink:href="#aA"/><use transform="matrix(0.05,0,0,0.05,9,0)" xlink:href="#ay"/><use transform="matrix(0.05,0,0,0.05,19,0)" xlink:href="#aB"/><use transform="matrix(0.05,0,0,0.05,29,0)" xlink:href="#aC"/><use transform="matrix(0.05,0,0,0.05,38,0)" xlink:href="#aD"/><use transform="matrix(0.05,0,0,0.05,48,0)" xlink:href="#aI"/><use transform="matrix(0.05,0,0,0.05,58,0)" xlink:href="#aJ"/><use transform="matrix(0.05,0,0,0.05,68,0)" xlink:href="#aN"/></g><g id="au"><use transform="matrix(0.05,0,0,0.05,0,0)" xlink:href="#az"/><use transform="matrix(0.05,0,0,0.05,3.95,0)" xlink:href="#aK"/><use transform="matrix(0.05,0,0,0.05,7.9,0)" xlink:href="#aA"/><use transform="matrix(0.05,0,0,0.05,16.9,0)" xlink:href="#aR"/></g><g id="av"><use transform="matrix(0.05,0,0,0.05,0,0)" xlink:href="#aW"/><use transform="matrix(0.05,0,0,0.05,9,0)" xlink:href="#aI"/><use transform="matrix(0.05,0,0,0.05,19,0)" xlink:href="#az"/><use transform="matrix(0.05,0,0,0.05,22.95,0)" xlink:href="#aK"/><use transform="matrix(0.05,0,0,0.05,26.899999999999995,0)" xlink:href="#aN"/></g><g id="aw"><use transform="matrix(0.05,0,0,0.05,0,0)" xlink:href="#aA"/><use transform="matrix(0.05,0,0,0.05,9,0)" xlink:href="#ay"/><use transform="matrix(0.05,0,0,0.05,19,0)" xlink:href="#aB"/><use transform="matrix(0.05,0,0,0.05,29,0)" xlink:href="#aC"/><use transform="matrix(0.05,0,0,0.05,38,0)" xlink:href="#aD"/><use transform="matrix(0.05,0,0,0.05,48,0)" xlink:href="#aS"/><use transform="matrix(0.05,0,0,0.05,62.95,0)" xlink:href="#aI"/><use transform="matrix(0.05,0,0,0.05,72.95,0)" xlink:href="#aR"/><use transform="matrix(0.05,0,0,0.05,77.95,0)" xlink:href="#aC"/><use transform="matrix(0.05,0,0,0.05,86.95,0)" xlink:href="#aE"/><use transform="matrix(0.05,0,0,0.05,96.95,0)" xlink:href="#aB"/><use transform="matrix(0.05,0,0,0.05,106.95,0)" xlink:href="#aA"/></g><g id="ax"><use transform="matrix(0.05,0,0,0.05,0,0)" xlink:href="#aI"/><use transform="matrix(0.05,0,0,0.05,10,0)" xlink:href="#aA"/><use transform="matrix(0.05,0,0,0.05,19,0)" xlink:href="#aA"/><use transform="matrix(0.05,0,0,0.05,28,0)" xlink:href="#aB"/><use transform="matrix(0.05,0,0,0.05,38,0)" xlink:href="#aG"/><use transform="matrix(0.05,0,0,0.05,43.95,0)" xlink:href="#aR"/></g></defs></g></svg>